<?xml version="1.0" standalone="no"?>
<!DOCTYPE svg PUBLIC "-//W3C//DTD SVG 1.1//EN" "http://www.w3.org/Graphics/SVG/1.1/DTD/svg11.dtd" >
<svg xmlns="http://www.w3.org/2000/svg" xmlns:xlink="http://www.w3.org/1999/xlink" version="1.1">
<metadata></metadata>
<defs>
<font id="rsu_textregular" horiz-adv-x="612" >
<font-face units-per-em="2048" ascent="1638" descent="-410" />
<missing-glyph horiz-adv-x="512" />
<glyph unicode="&#x2b;&#x2d;" horiz-adv-x="644" d="M55 0v68h535v-68h-535zM55 414v71h231v232h72v-232h232v-71h-232v-232h-72v232h-231z" />
<glyph unicode="&#x2e;&#x2e;&#x2e;" horiz-adv-x="1024" d="M132 0v108h108v-108h-108zM458 0v108h107v-108h-107zM784 0v108h106v-108h-106z" />
<glyph horiz-adv-x="0" />
<glyph unicode="&#xd;" horiz-adv-x="579" />
<glyph unicode=" "  horiz-adv-x="512" />
<glyph unicode="&#x09;" horiz-adv-x="512" />
<glyph unicode="&#xa0;" horiz-adv-x="512" />
<glyph unicode="!" horiz-adv-x="307" d="M114 0v114h73v-114h-73zM114 202v556h73v-556h-73z" />
<glyph unicode="&#x22;" horiz-adv-x="360" d="M77 758h83l-12 -232h-58zM203 758h82l-13 -232h-56z" />
<glyph unicode="#" horiz-adv-x="701" d="M24 211l10 71h122l41 244h-122l11 71h118l28 161h72l-26 -161h194l30 161h72l-26 -161h129l-11 -71h-128l-39 -244h129l-14 -71h-128l-34 -211h-72l36 211h-198l-34 -211h-70l34 211h-124zM229 282h197l39 244h-197z" />
<glyph unicode="$" horiz-adv-x="625" d="M77 216l67 13v-5q2 -55 51 -91q18 -14 40 -23q23 -8 47 -12v263q-94 26 -144 69q-56 48 -56 120q0 40 18 76t51 62q33 27 75 42q13 5 27 8q15 3 29 5v85h65v-85q14 -2 28 -5q13 -3 27 -7q42 -13 73 -39q16 -13 28.5 -28.5t22.5 -31.5q20 -36 21 -72l1 -4l-67 -11v5 q0 52 -48 90q-36 29 -86 36v-264q7 -2 15 -4q10 -2 20 -6q20 -6 38.5 -14t37.5 -19q37 -22 65 -57q29 -36 29 -88q0 -40 -20 -76q-10 -18 -22 -34q-12 -14 -28 -28q-32 -26 -76 -42q-30 -10 -59 -13v-87h-65v87q-14 2 -28 5t-28 7q-21 7 -39.5 17t-34.5 22q-16 13 -29 27.5 t-23 30.5q-20 32 -22 72zM148 550q0 -80 134 -120v246q-50 -8 -86 -36q-48 -38 -48 -90zM347 98q51 7 89 35q48 36 48 91q0 78 -137 120v-246z" />
<glyph unicode="%" horiz-adv-x="753" d="M12 613q0 67 47 113t113 46t112 -46q48 -46 48 -113t-48 -113q-46 -46 -112 -45q-67 -1 -113 45q-47 46 -47 113zM73 613q0 -41 29 -69q28 -30 70 -30q41 0 70 30q30 28 30 69q0 40 -30 70q-30 29 -70 29t-70 -29q-29 -29 -29 -70zM92 2l492 757h82l-492 -757h-82z M403 146q0 67 47 112q48 46 114 46t112 -46t46 -112t-46 -112t-112 -47q-66 1 -114 47q-47 46 -47 112zM462 146q0 -40 30 -70q30 -28 72 -28t69 28q29 30 29 70q0 41 -29 69q-27 29 -69 29q-40 0 -72 -29q-30 -29 -30 -69z" />
<glyph unicode="&#x26;" horiz-adv-x="703" d="M58 210q0 38 12 70.5t32 58t48 45.5t62 34h2l-62 66q-24 27 -38.5 59.5t-14.5 70.5q0 36 14.5 71t40.5 61q27 26 60 40q34 14 72 14q36 0 71 -14t60 -40q26 -26 40.5 -61t14.5 -71q0 -77 -44 -137q-42 -59 -104 -86l-2 -1l172 -181v1q6 22 6 53q0 27 -7 51.5t-17 48.5 l-2 3h68l2 -1q20 -45 19 -102q-1 -51 -21 -105v-1l124 -133l-41 -41l-111 119h-2q-20 -27 -45 -48.5t-54 -36.5t-61 -23t-66 -8t-66 10t-59 28t-49 43t-36 57q-18 40 -18 86zM119 214q-1 -34 13 -64q10 -22 25.5 -41t35 -32.5t42.5 -21t49 -7.5q28 0 54.5 7t50.5 19.5t44 31 t34 42.5l-209 224v1q-28 -8 -54 -21.5t-44.5 -34t-29.5 -46t-11 -57.5zM160 614q0 -26 10 -48t26 -40l82 -88h1q54 12 93 62q40 51 40 114q0 52 -38 88q-38 38 -88 38q-52 0 -89 -38t-37 -88z" />
<glyph unicode="'" horiz-adv-x="235" d="M76 758h84l-13 -242h-57z" />
<glyph unicode="(" horiz-adv-x="340" d="M60 336q0 136 48 252q48 117 138 207l6 6l45 -52l-5 -5q-39 -40 -69.5 -86t-51.5 -98q-22 -53 -32.5 -109.5t-10.5 -114.5q0 -122 43 -224t121 -185l5 -5l-45 -52l-6 6q-86 90 -136 208q-50 116 -50 252z" />
<glyph unicode=")" horiz-adv-x="331" d="M36 -80l5 6q78 82 121 184t43 224q0 118 -43 224q-22 52 -52 98t-69 86l-5 6l46 51l6 -6q90 -91 138 -207q48 -118 48 -252t-50 -252q-25 -58 -59 -110q-33 -52 -77 -98l-6 -6z" />
<glyph unicode="*" horiz-adv-x="621" d="M63 662l23 64l192 -60l-2 192h68l-2 -192l190 60l24 -64l-197 -58l122 -170l-57 -34l-119 169l-113 -171l-54 40l116 168z" />
<glyph unicode="+" horiz-adv-x="644" d="M56 284v71h232v232h70v-232h232v-71h-232v-232h-70v232h-232z" />
<glyph unicode="," horiz-adv-x="306" d="M94 -78l78 206h107l-118 -206h-67z" />
<glyph unicode="-" d="M71 276v68h471v-68h-471z" />
<glyph unicode="." horiz-adv-x="311" d="M104 0v107h108v-107h-108z" />
<glyph unicode="/" horiz-adv-x="448" d="M40 -130l307 928h71l-304 -928h-74z" />
<glyph unicode="0" horiz-adv-x="548" d="M30 228v258q0 48 19 92t53 78t78 53t94 19q48 0 93.5 -19t78.5 -53q34 -33 53 -77.5t19 -92.5v-258q0 -52 -20 -94q-20 -44 -52 -78q-16 -16 -36 -29t-42.5 -22.5t-46 -14.5t-47.5 -5q-49 0 -93.5 18.5t-78.5 52.5q-33 34 -52 78q-20 44 -20 94zM92 228q0 -76 53 -128 q53 -54 129 -54t128 54q52 52 52 128v258q0 76 -52 128t-128 53q-76 -1 -129 -53t-53 -128v-258z" />
<glyph unicode="1" horiz-adv-x="520" d="M154 670v61h184v-731h-61v670h-123z" />
<glyph unicode="2" horiz-adv-x="557" d="M36 0v30q2 14 4 32q8 84 33 140q22 48 52.5 86t72.5 64q12 8 22 14t20 11t19 10t21 11q10 6 19 10t17 8l17 8.5l19 9.5q12 6 22 13t20 15q18 14 30 32t12 42q0 60 -44 100t-102 40h-62q-44 0 -80 -22q-34 -21 -54 -56l-44 45q28 43 74 69t104 26h62q22 0 41.5 -4 t38.5 -12q38 -16 66 -43q29 -29 46 -65q16 -38 16 -78q0 -36 -16 -64t-41 -51q-12 -11 -25.5 -20t-27.5 -17l-22 -11t-19 -10t-19 -9.5t-20 -10.5l-74 -41q-36 -22 -60 -52t-44 -72q-11 -24 -18 -53t-11 -63h397v-62h-462z" />
<glyph unicode="3" horiz-adv-x="532" d="M34 80l45 45q16 -35 50 -57t75 -21h58q60 0 98 41q40 41 40 98q0 58 -40 100t-98 42h-105v61h105q58 0 98 40t40 99q0 60 -40 100t-98 40h-58q-42 0 -75 -22q-34 -22 -50 -56l-45 44q13 22 31 39q19 17 41 31q45 26 98 25h58q84 -1 142 -59t58 -142q0 -53 -26 -98 q-13 -22 -29.5 -40.5t-38.5 -31.5q42 -30 68 -74q26 -45 26 -98q0 -84 -58 -142t-142 -58h-58q-54 0 -98 25q-45 27 -72 69z" />
<glyph unicode="4" horiz-adv-x="526" d="M12 154v61l330 518h72v-518h73v-61h-73v-154h-62v154h-340zM86 215h266v420z" />
<glyph unicode="5" horiz-adv-x="513" d="M26 110l45 48q23 -50 67 -80q42 -30 98 -31q76 0 130 53q54 54 53 129v21q0 72 -50 116q-51 46 -133 46h-190v313h404v-61h-342v-191h128q106 -1 176 -63q68 -62 68 -160v-21q0 -49 -19 -94q-21 -45 -53 -78q-32 -32 -76 -52q-44 -19 -96 -19q-68 0 -123 34 q-57 34 -87 90z" />
<glyph unicode="6" horiz-adv-x="545" d="M26 228v21v219q0 26 5.5 51.5t15.5 49t24.5 45.5t32.5 40q38 38 85 57t100 19q28 0 54.5 -5.5t51.5 -16t47 -26.5t40 -38l-44 -44q-30 33 -67 51t-82 18q-85 -1 -143 -59t-58 -142v-57q36 40 82 61t100 21q48 0 92 -19q44 -20 78 -53q34 -34 53 -78t19 -94v-21 q0 -48 -19 -93t-53 -79t-78 -52q-44 -19 -92 -19q-49 0 -93.5 18.5t-78.5 52.5t-53 79t-19 93zM88 228q0 -76 54 -128q52 -54 128 -54t128 54q52 52 52 128v21q0 76 -52 129q-52 54 -128 54t-128 -54q-54 -54 -54 -129v-21z" />
<glyph unicode="7" horiz-adv-x="567" d="M62 672v61h450l-218 -733h-64l200 672h-368z" />
<glyph unicode="8" horiz-adv-x="585" d="M44 186v2q0 56 34 102t90 72q-22 14 -39 32t-30 39t-20 45t-7 50v2q0 31 10 59.5t28 53.5t43 43t53 30q40 16 88 15q46 1 84 -15q39 -14 69.5 -42t47.5 -66q17 -36 17 -78v-2q0 -26 -7 -50t-19 -45t-30 -39t-40 -32q28 -14 50 -32q22 -16 40 -40q36 -46 36 -102v-2 q0 -42 -20 -78q-21 -40 -55.5 -66t-76.5 -41q-22 -8 -46 -11q-24 -4 -50 -4q-52 0 -98 15q-43 14 -78 41q-34 26 -55 66q-19 36 -19 78zM105 186q1 -28 15 -54q12 -22 31 -38t43 -26.5t50 -15.5t50 -5q32 0 64.5 9t59.5 26.5t44.5 43.5t17.5 60v2q0 34 -17 60t-44.5 44 t-60.5 27q-32 9 -64 9q-24 0 -50 -5t-49.5 -16t-43 -27t-31.5 -38q-14 -26 -15 -54v-2zM134 528q0 -59 47 -99t113 -40t111 40q46 40 46 99v2q0 31 -13.5 56.5t-35.5 43.5t-50 28t-58 10t-59 -10t-51 -28t-36 -43.5t-14 -56.5v-2z" />
<glyph unicode="9" horiz-adv-x="549" d="M26 466v21q0 49 20 94q14 33 37 60.5t52 47t63 30.5t70 11q37 0 71.5 -10.5t63.5 -30t52 -47.5t37 -61q20 -45 20 -94v-21v-219q0 -54 -21 -101.5t-56.5 -83.5t-83 -56.5t-101.5 -20.5q-27 0 -54 5.5t-51.5 17t-46.5 26.5q-22 16 -40 37l42 45q29 -33 67 -51.5t83 -18.5 q42 0 78 16t63.5 43t43 63.5t15.5 78.5v57q-36 -38 -82 -60t-100 -22q-48 0 -92 19t-78 53t-53 78t-19 94zM88 466q0 -36 14 -70t40 -58q26 -26 58 -40t68 -14q76 0 130 54q52 52 52 128v21q0 38 -14 70.5t-39 57.5t-58 39.5t-71 14.5q-27 0 -52.5 -8.5t-47 -22.5t-38.5 -35 q-18 -21 -28 -45q-14 -34 -14 -71v-21z" />
<glyph unicode=":" horiz-adv-x="315" d="M105 0v106h107v-106h-107zM105 439v107h107v-107h-107z" />
<glyph unicode=";" horiz-adv-x="297" d="M42 -70l76 208h108l-118 -208h-66zM118 440v107h108v-107h-108z" />
<glyph unicode="&#x3c;" horiz-adv-x="638" d="M51 294v60l537 254v-69l-451 -215l451 -213v-71z" />
<glyph unicode="=" horiz-adv-x="578" d="M53 170v68h471v-68h-471zM53 344v68h471v-68h-471z" />
<glyph unicode="&#x3e;" horiz-adv-x="636" d="M49 38v71l451 213l-451 215v69l537 -254v-60z" />
<glyph unicode="?" horiz-adv-x="521" d="M68 680l2 4q26 40 69 64t97 24h24q39 0 75 -15q18 -7 33.5 -17t29.5 -23q13 -13 23.5 -28t18.5 -32q14 -34 14 -73q0 -68 -40 -116q-20 -24 -40 -45t-40 -38q-26 -21 -48 -61t-22 -98v-47h-66v47q0 44 10 80q5 18 11.5 33t14.5 28t17 24t19 19q9 9 17.5 17t16.5 15 q38 32 62 68q24 33 24 74q0 52 -38 88t-92 35h-24q-38 0 -70 -19t-48 -50l-3 -5zM198 0v102h66v-102h-66z" />
<glyph unicode="@" horiz-adv-x="939" d="M72 394q0 83 31 158.5t89 133.5q28 29 62 50.5t72 36.5t78 23t82 8q76 0 146.5 -26t124.5 -76q52 -48 79.5 -114t27.5 -140q0 -24 -2 -49t-7 -49.5t-13 -48t-19 -44.5q-22 -40 -54 -63q-33 -24 -79 -24q-14 0 -30 5.5t-30 15t-25 22.5t-15 29q-27 -36 -62.5 -50.5 t-79.5 -14.5q-45 0 -80.5 15.5t-60.5 42.5t-38.5 64.5t-13.5 81.5q0 46 15.5 88.5t45.5 75.5q30 32 71 48.5t85 16.5q50 0 86 -16q32 -16 61 -56l9 64h67l-33 -272l-10 -59q-2 -10 2.5 -17.5t12 -12.5t16.5 -7t17 -2q12 0 22 6t19 16t16 21t13 21q16 34 24 74q7 38 7 78 q0 60 -22.5 114t-66.5 94q-46 42 -105.5 62.5t-124.5 20.5q-34 0 -68 -6.5t-65 -19.5t-59 -32t-52 -43q-48 -49 -74 -112.5t-26 -133.5q0 -94 45 -173q45 -81 125 -125t196 -44q15 0 32.5 3t35.5 6.5t35 8t31 10.5h2l26 -62l-3 -1q-37 -12 -78 -19.5t-81 -7.5q-96 0 -174 30 t-136 83t-90 129t-32 164zM322 381q0 -29 9 -55t26 -45t41 -30t54 -11t59 14.5t49 37.5t35 56q13 32 13 68q0 58 -36 95t-98 37q-64 0 -108 -48q-22 -24 -33 -53.5t-11 -65.5z" />
<glyph unicode="A" horiz-adv-x="526" d="M0 0l230 759h66l230 -759h-66l-47 160h-301l-46 -160h-66zM130 211h266l-134 435z" />
<glyph unicode="B" horiz-adv-x="579" d="M70 0v758h274q86 0 147 -56q61 -58 61 -145q0 -54 -28 -98t-70 -71l-2 -2h2q42 -30 70 -76t28 -100q0 -42 -16 -80t-45 -68q-29 -29 -67 -45q-38 -17 -80 -17h-274zM132 62h212q60 0 103 42q43 44 43 106q0 60 -43 103t-103 43h-212v-294zM132 417h212q30 0 55.5 10 t47.5 30q43 40 43 100q0 61 -43 101q-43 38 -103 39h-212v-280z" />
<glyph unicode="C" horiz-adv-x="565" d="M38 252v251q0 55 22 103q22 50 57 86q36 36 85 57q48 21 104 21q68 0 124 -30q56 -32 92 -82l-46 -42q-28 43 -72 67q-45 25 -98 25q-43 0 -79.5 -15t-66.5 -45q-60 -60 -60 -145v-251q0 -86 60 -145q30 -30 66.5 -45t79.5 -15h4q52 0 94 25q22 12 40 29t32 39l46 -43 q-36 -50 -92 -81q-57 -30 -124 -30q-56 0 -104 20q-48 21 -85 58q-18 18 -32.5 39t-24.5 45q-22 48 -22 104z" />
<glyph unicode="D" horiz-adv-x="607" d="M70 0v758h216q56 0 102 -21q46 -20 84 -57q36 -36 58 -85t21 -105v-225q1 -57 -21 -103q-22 -48 -58 -84t-84 -57t-102 -21h-216zM131 62h155q40 0 78 16t66 44q14 14 24 30q12 16 20 34q16 36 16 79v225q0 43 -16 81q-16 37 -44 65t-66 44t-78 16h-155v-634z" />
<glyph unicode="E" horiz-adv-x="608" d="M70 0v758h483v-62h-422v-276h355l-12 -62h-343v-296h422v-62h-483z" />
<glyph unicode="F" horiz-adv-x="599" d="M72 0v758h480v-62h-420v-283h354l-10 -61h-344v-352h-60z" />
<glyph unicode="G" horiz-adv-x="620" d="M38 257v241q0 56 22 106q21 48 58 86q18 18 40 33t47 26q50 21 105 21q56 0 105 -21q50 -23 87 -59q38 -38 58 -86q22 -50 22 -104h-64q0 86 -60 148q-60 60 -148 60t-149 -60q-61 -62 -61 -150v-241q0 -89 61 -149q30 -31 67.5 -46t81.5 -15h3q86 0 145 61q60 60 60 149 v49h-206v61h270v-110q0 -55 -22 -105q-21 -50 -58 -86q-37 -38 -87 -59t-105 -21q-54 0 -105 21q-25 10 -47 24.5t-40 34.5q-37 37 -58 86q-22 49 -22 105z" />
<glyph unicode="H" horiz-adv-x="684" d="M70 0v758h61v-340h418v340h61v-758h-61v356h-418v-356h-61z" />
<glyph unicode="I" horiz-adv-x="214" d="M76 0v758h62v-758h-62z" />
<glyph unicode="J" horiz-adv-x="367" d="M8 27l44 43l6 -4q2 -2 6 -4q1 0 2.5 -1t3.5 -1q7 -4 13.5 -6t14.5 -4h3h3q4 -1 8 -2.5t8 -1.5q46 0 80 33q34 32 34 80v599h61v-599q-1 -72 -51 -123q-52 -50 -124 -50q-66 0 -112 41z" />
<glyph unicode="K" horiz-adv-x="611" d="M70 0v758h61v-362l347 362h84l-360 -378h-1l399 -380h-88l-379 362l-2 2v-364h-61z" />
<glyph unicode="L" horiz-adv-x="562" d="M68 0v758h62v-696h420v-62h-482z" />
<glyph unicode="M" horiz-adv-x="740" d="M70 0v758h68l232 -364l1 -2l235 366h68v-758h-60v655l-205 -319h-73l-202 315l-3 4v-655h-61z" />
<glyph unicode="N" horiz-adv-x="679" d="M69 0v758h69l408 -649l3 -4v653h61v-758h-68l-409 649l-3 4v-653h-61z" />
<glyph unicode="O" horiz-adv-x="587" d="M41 238v277q0 51 20 97q20 47 54 81q17 17 37 30.5t42 23.5q46 21 99 21q51 0 97 -21q46 -20 79 -54q17 -17 30.5 -37t23.5 -44q21 -47 21 -97v-277q0 -52 -20 -98q-10 -23 -24 -43q-14 -19 -31 -37q-33 -34 -79 -54q-44 -20 -97 -20q-55 0 -99 20q-22 10 -42 23t-37 31 q-34 34 -54 80q-20 44 -20 98zM102 238q0 -80 56 -136q55 -55 132 -55h2.5h3.5q79 0 132 55q54 56 54 136v277q0 79 -54 135q-55 56 -135 56q-79 0 -135 -56t-56 -135v-277z" />
<glyph unicode="P" horiz-adv-x="643" d="M69 0v758h327q90 0 152 -60t62 -148q0 -46 -17 -84q-8 -20 -19 -36q-12 -18 -26 -32t-31 -25t-37 -20q-40 -17 -84 -17h-266v-336h-61zM130 398h266q62 0 108 44q44 44 44 108t-44 106q-44 40 -108 40h-266v-298z" />
<glyph unicode="Q" horiz-adv-x="579" d="M39 237v281q-1 50 21 98q10 24 23 43.5t30 36.5q32 32 81 55q46 19 98 19q48 0 97 -19q24 -12 43.5 -25.5t35.5 -29.5q30 -30 52 -81q22 -41 22 -97v-281q0 -27 -6 -52t-16 -47q-4 -14 -18 -36l-1 -2l79 -76l-37 -34l-74 74v-4h-1v-1q-32 -32 -79 -55q-49 -19 -97 -19 q-52 0 -98 19q-50 22 -81 55q-17 17 -29 36q-6 10 -12 20.5t-12 22.5t-10 24q-4 11 -6 23q-6 25 -5 52zM100 237q0 -79 56 -135q60 -56 136 -56q80 0 134 56l2 1l-92 91l36 37l85 -85h1v1q22 36 22 90v281q0 81 -54 135q-54 55 -134 55t-136 -55t-56 -135v-281z" />
<glyph unicode="R" horiz-adv-x="645" d="M69 0v758h327q88 0 152 -59q62 -61 62 -149q0 -40 -14 -76q-7 -18 -16.5 -34t-22.5 -30t-27 -26t-32 -22q-16 -10 -35 -16t-39 -8h-2l170 -338h-68l-170 336h-224v-336h-61zM130 398h266q62 0 108 45q44 45 44 107t-44 105q-46 41 -108 41h-266v-298z" />
<glyph unicode="S" horiz-adv-x="548" d="M16 188l62 12q3 -62 58 -103q56 -42 135 -42q80 0 135 42q56 43 56 105q0 102 -200 148q-242 58 -242 208q0 42 21 80q10 19 23.5 35.5t29.5 30.5q34 29 80 45q44 15 97 15q24 0 47.5 -3t45.5 -11q46 -16 78 -42t54 -64q21 -36 23 -75l-61 -11q-2 60 -56 102 q-54 44 -131 44q-80 0 -134 -44q-55 -42 -55 -102q0 -52 49 -89t146 -60q12 -4 27.5 -8t37.5 -10q42 -13 82 -37t70 -61q29 -34 29 -87q0 -24 -5 -45t-15 -40t-23.5 -36t-30.5 -31q-35 -28 -81 -44q-47 -16 -97 -16q-51 0 -95 14t-80 42q-34 26 -56 62q-20 36 -24 76z" />
<glyph unicode="T" horiz-adv-x="519" d="M8 696v62h503v-62h-222v-696h-61v696h-220z" />
<glyph unicode="U" horiz-adv-x="646" d="M70 238v520h61v-520q0 -39 15 -74q14 -36 40 -61q26 -26 60 -41t74 -15q80 0 135 56t55 135v520h62v-520q0 -52 -20 -98t-54 -80t-80 -54t-98 -20q-50 0 -97 20q-45 20 -79 54t-54 80q-10 22 -15 47t-5 51z" />
<glyph unicode="V" horiz-adv-x="545" d="M10 758h66l194 -640l1 -4l195 644h66l-228 -758h-66z" />
<glyph unicode="W" horiz-adv-x="812" d="M6 758h66l191 -638l1 -4l106 352h66l104 -348l2 -4l192 642h66l-230 -758h-58l-108 359l-1 4l-109 -363h-58z" />
<glyph unicode="X" horiz-adv-x="625" d="M6 0l268 378l-268 380h76l230 -325l1 -2l231 327h73l-267 -380l267 -378h-73l-230 324l-1 1l-231 -325h-76z" />
<glyph unicode="Y" horiz-adv-x="619" d="M3 758h75l230 -328l2 -1l228 329h76l-274 -392v-366h-61v366z" />
<glyph unicode="Z" horiz-adv-x="606" d="M14 0v47l492 647l2 2h-468v62h554v-50l-492 -647l-2 -2h468v-59h-554z" />
<glyph unicode="[" horiz-adv-x="387" d="M116 -296v1218h226v-66h-156v-1083h156v-69h-226z" />
<glyph unicode="\" horiz-adv-x="570" d="M86 792h75l255 -792h-74z" />
<glyph unicode="]" horiz-adv-x="384" d="M40 -227h156v1083h-156v66h226v-1218h-226v69z" />
<glyph unicode="^" horiz-adv-x="741" d="M58 184l283 600h59l284 -600h-71l-243 514l-244 -514h-68z" />
<glyph unicode="_" horiz-adv-x="886" d="M0 -134h886v-77h-886v77z" />
<glyph unicode="`" horiz-adv-x="442" d="M74 869l51 57l243 -244l-52 -53z" />
<glyph unicode="a" horiz-adv-x="553" d="M40 233v91q0 52 18 97t50 79q31 33 73 53q43 19 89 19t86 -17q20 -8 38 -20.5t34 -26.5l10 -9v62h64v-561h-64v58l-10 -8q-32 -30 -72 -48q-20 -9 -41 -13t-45 -4h-4q-45 0 -85 19q-21 10 -39 23.5t-34 30.5q-32 34 -50 78q-18 45 -18 97zM104 233q0 -75 48 -129t118 -54 q69 0 118 54q50 53 50 129v91q0 76 -50 130q-49 54 -118 54q-68 0 -118 -54q-48 -54 -48 -130v-91z" />
<glyph unicode="b" horiz-adv-x="575" d="M62 -6v795h65v-293l10 10q61 68 155 68q47 0 88.5 -20t73.5 -54q16 -17 28 -36q12 -20 22 -42q18 -46 19 -97v-89q-1 -52 -19 -98q-10 -23 -22 -42.5t-28 -36.5q-30 -34 -73 -53.5t-89 -19.5q-45 0 -84.5 18t-70.5 48l-10 10v-68h-65zM127 236q1 -76 49 -130 q48 -56 116 -56t118 56q48 56 48 130v89q0 76 -48 130q-50 53 -118 53t-116 -53q-48 -54 -49 -130v-89z" />
<glyph unicode="c" horiz-adv-x="482" d="M38 233v92q0 53 20 97q9 22 21.5 41.5t27.5 36.5q31 34 73 54q40 19 85 19h4q57 0 105 -27q46 -26 78 -70l-47 -46q-10 16 -23.5 30t-30.5 24q-37 24 -82 24q-69 0 -117 -54t-48 -129v-92q0 -75 48 -129t117 -54q45 0 82 24q16 11 30 24.5t24 31.5l47 -48 q-16 -22 -35.5 -39.5t-42.5 -30.5q-48 -27 -105 -27q-48 0 -89 20q-42 20 -73 53q-31 34 -49 78q-20 46 -20 97z" />
<glyph unicode="d" horiz-adv-x="558" d="M40 234v92q0 49 18 94q18 46 50 80t74 54t88 20q44 0 84 -18t72 -47l10 -9v289h64v-795h-64v65l-10 -9q-33 -30 -72.5 -47t-83.5 -17q-46 0 -88 20t-74 53q-33 34 -50.5 80t-17.5 95zM104 234q0 -76 48 -130q24 -27 54 -40.5t64 -13.5q68 0 117 54t49 130v92 q0 76 -49 129q-49 54 -117 54t-118 -54q-48 -53 -48 -129v-92z" />
<glyph unicode="e" horiz-adv-x="538" d="M39 233v93q0 48 17.5 92.5t48 79t73 55.5t92.5 21q48 0 90 -20t73 -54t49 -78t18 -92v-70h-396v-27q0 -36 12 -68.5t34 -58.5t52 -41q32 -15 68 -15q42 0 78 22t58 58l46 -48q-16 -22 -36 -40t-43 -31t-49 -19q-26 -7 -54 -7h-5q-47 0 -85 19q-33 16 -59.5 40t-44.5 54 t-27.5 64t-9.5 71zM104 324h331v6q0 34 -12.5 66.5t-35.5 57.5t-53 40t-64 15t-65 -15t-53 -40t-35 -57q-13 -33 -13 -67v-6z" />
<glyph unicode="f" horiz-adv-x="374" d="M12 510v65h91v87q0 28 11.5 54.5t31.5 47t46.5 33t57.5 12.5q34 0 63 -16q29 -15 53 -41l-46 -48q-24 40 -70 40q-16 0 -31 -6.5t-26 -18t-18 -26t-7 -31.5v-87h144v-65h-144v-510h-65v510h-91z" />
<glyph unicode="g" horiz-adv-x="565" d="M40 234v92q0 50 16 94.5t50 79.5q32 33 74 54q42 20 90 20q90 0 156 -68l10 -10v70h64v-586q0 -25 -5 -50.5t-15 -49t-24.5 -45t-32.5 -39.5q-36 -36 -83.5 -56t-100.5 -20q-47 0 -87.5 15t-76.5 43l45 47q50 -41 119 -41q80 0 139 58q58 58 58 138v79l-10 -9 q-33 -30 -72.5 -47t-83.5 -17q-96 0 -164 72q-66 72 -66 176zM104 234q0 -76 48 -130t118 -54q68 0 117 54t49 130v92q0 74 -49 128t-117 54t-118 -54q-48 -54 -48 -128v-92z" />
<glyph unicode="h" horiz-adv-x="558" d="M60 0v794h64v-286l10 8q62 58 146 58q94 0 158 -65q64 -66 64 -156v-353h-64v353q0 63 -46 109t-112 46q-64 0 -110 -46t-46 -109v-353h-64z" />
<glyph unicode="i" horiz-adv-x="229" d="M82 0v561h64v-561h-64zM82 666v103h64v-103h-64z" />
<glyph unicode="j" horiz-adv-x="193" d="M-133 -228l45 44q11 -19 28.5 -27.5t40.5 -8.5q18 0 32.5 6t25.5 17t17.5 26t6.5 33v699h65v-699q0 -64 -43 -106t-104 -42q-73 0 -114 58zM63 666v103h65v-103h-65z" />
<glyph unicode="k" horiz-adv-x="529" d="M60 0v806h64v-806h-64zM138 275l292 286h90l-289 -286l289 -275h-90z" />
<glyph unicode="l" horiz-adv-x="187" d="M62 0v809h64v-809h-64z" />
<glyph unicode="m" horiz-adv-x="875" d="M60 0v566h64v-50l10 8q28 22 61 36t69 14q25 0 49.5 -6t46.5 -18t40 -28t32 -38l5 -7l5 7q14 22 32.5 39t40.5 28t46.5 17t50.5 6q42 0 79 -17t65 -45t44.5 -65t16.5 -79v-368h-65v368q0 29 -11 54.5t-30 44.5t-45 30t-54 11q-30 0 -56 -10.5t-45 -29.5t-30 -44.5 t-11 -55.5v-368h-65v368q0 30 -10.5 55.5t-29.5 44.5t-45 29.5t-56 10.5q-28 0 -54 -11t-45 -30t-30 -44t-11 -55v-368h-64z" />
<glyph unicode="n" horiz-adv-x="562" d="M60 0v565h64v-57l10 8q63 57 145 57h3q91 -1 156 -65q64 -64 64 -158v-350h-64v350q0 66 -46 112t-110 46q-66 0 -112 -46t-46 -112v-350h-64z" />
<glyph unicode="o" horiz-adv-x="577" d="M39 234v91q0 104 72 176t176 72q105 0 177 -72t71 -176v-91q1 -104 -71 -176t-177 -72q-52 0 -96 18t-80 54q-72 72 -72 176zM104 234q0 -76 54 -130q53 -54 129 -54t130 54q53 54 53 130v91q0 75 -53 129q-55 54 -130 54t-129 -54t-54 -129v-91z" />
<glyph unicode="p" horiz-adv-x="557" d="M59 -231v796h65v-71l10 12q62 66 156 66q46 0 89 -19.5t73 -53.5q33 -34 50.5 -79.5t17.5 -95.5v-91q0 -50 -18 -96.5t-50 -81.5q-32 -34 -74 -52t-88 -18q-92 0 -156 64l-10 10v-290h-65zM124 233q0 -75 48 -129t118 -54q68 0 117 54q48 53 48 129v91q0 76 -48 130 q-49 54 -117 54q-70 0 -118 -54t-48 -130v-91z" />
<glyph unicode="q" horiz-adv-x="563" d="M40 234v90q0 50 16 95t50 81q33 34 74.5 53.5t89.5 19.5q44 0 84 -17q40 -18 72 -48l9 -8v68h65v-798h-65v288l-9 -8q-32 -30 -72 -47t-84 -17q-48 0 -89.5 19t-74.5 53q-34 36 -50 81t-16 95zM104 234q0 -76 48 -130t118 -54q68 0 117 54q48 54 48 130v90q0 76 -48 130 q-49 54 -117 54q-70 0 -118 -54t-48 -130v-90z" />
<glyph unicode="r" horiz-adv-x="400" d="M60 0v568h64v-50l10 8q54 47 128 47q68 0 126 -43l-48 -46q-32 24 -78 24q-58 0 -98 -40t-40 -98v-370h-64z" />
<glyph unicode="s" horiz-adv-x="435" d="M14 132l62 11q3 -37 40 -64q40 -29 92 -29t92 29t41 71q0 3 -0.5 7.5t-2.5 10.5q-2 12 -16 26q-13 12 -41 28q-28 14 -79 27q-188 45 -188 165q0 66 57 113q58 49 137 49t135 -44q53 -42 59 -101l-64 -11q-3 37 -39 63q-38 28 -91 28q-52 0 -90 -28q-40 -27 -40 -69 q0 -64 139 -102q189 -44 189 -162q0 -68 -57 -116q-56 -48 -141 -48q-80 0 -134 44q-54 43 -60 102z" />
<glyph unicode="t" horiz-adv-x="375" d="M8 496v65h90v150h66v-150h144v-65h-144v-364q0 -36 24 -59t57 -23q45 0 70 40l47 -48q-20 -26 -52 -41t-65 -15q-61 0 -103 42q-44 43 -44 104v364h-90z" />
<glyph unicode="u" horiz-adv-x="562" d="M60 206v355h64v-355q0 -66 45 -111t111 -45t110 45t45 111v355h67v-571h-67v58l-9 -8q-60 -54 -146 -55q-92 1 -156 65t-64 156z" />
<glyph unicode="v" horiz-adv-x="526" d="M6 561h69l187 -497l186 497h70l-209 -561h-91z" />
<glyph unicode="w" horiz-adv-x="730" d="M6 561h68l175 -467l77 214h74l77 -214l177 467h69l-210 -559l-1 -2h-70l-79 219l-79 -217v-2h-70z" />
<glyph unicode="x" horiz-adv-x="462" d="M6 561h78l148 -233l148 233h75l-183 -291l-2 -2l178 -268h-76l-140 218l-140 -218h-78l177 264l2 4z" />
<glyph unicode="y" horiz-adv-x="472" d="M6 561h66l162 -485l162 485h68l-195 -586l-41 -119l-46 -144h-69l89 259v2z" />
<glyph unicode="z" horiz-adv-x="568" d="M58 496v65h440l-314 -487l-6 -10h325v-64h-441l314 488l6 8h-324z" />
<glyph unicode="{" horiz-adv-x="360" d="M53 312l75 76v246q0 41 6 79.5t19 74.5q24 72 67 133l50 -49q-34 -50 -53 -110q-18 -60 -18 -128v-257l-58 -65l58 -57v-263q1 -137 75 -245l-50 -47q-22 32 -39 65.5t-30 70.5q-27 74 -27 156v248z" />
<glyph unicode="|" horiz-adv-x="688" d="M312 0v758h64v-758h-64z" />
<glyph unicode="}" horiz-adv-x="360" d="M46 -252q75 106 75 244v264l57 58l-57 64v257q-1 71 -19 129q-18 60 -52 109l50 49q43 -60 67 -132q25 -73 25 -155v-247l74 -74l-74 -73v-249q0 -82 -28 -155q-26 -74 -69 -136z" />
<glyph unicode="~" horiz-adv-x="637" d="M51 264l83 83h340l66 65l42 -43l-83 -88h-341l-62 -65z" />
<glyph unicode="&#xa2;" horiz-adv-x="579" d="M53 377q0 48 17.5 88.5t46.5 71t68 50t83 25.5v84h62v-84q32 -4 61 -16t54.5 -31t45 -44t31.5 -56h-72q-18 32 -50 54t-70 30v-342q76 11 120 79h72q-29 -62 -79 -100q-49 -36 -113 -44v-86h-62v86q-46 6 -85 26t-68 51t-45.5 71t-16.5 87zM119 379q0 -33 11.5 -62 t32.5 -52.5t48 -39t57 -20.5v344q-32 -6 -59 -20.5t-47 -36.5t-31.5 -51t-11.5 -62z" />
<glyph unicode="&#xa3;" horiz-adv-x="585" d="M58 0v68h134q-4 66 -12 116q-8 48 -20 90h-82v68h57q-12 28 -23.5 52t-21 47t-14.5 47q-6 22 -6 50q0 49 16.5 91.5t46 73.5t69.5 49t87 18q44 0 85.5 -18t74 -48.5t52 -72t19.5 -89.5v-22h-68q2 34 -9 66t-32.5 57t-51 39t-64.5 14q-30 0 -57.5 -11t-49 -30.5t-34 -47 t-12.5 -60.5q0 -26 6 -48.5t16.5 -46.5t23 -50.5t25.5 -59.5h176v-68h-153q11 -42 18.5 -91t11.5 -115h246v-68h-454z" />
<glyph unicode="&#xa5;" horiz-adv-x="645" d="M22 758h84l216 -426l216 426h82l-178 -344h176v-70h-210l-48 -90h258v-70h-258v-184h-76v184h-256v70h256l-46 90h-210v70h172z" />
<glyph unicode="&#xa9;" horiz-adv-x="964" d="M32 432q0 44 9 88t26 84t42 77t55 67q64 62 145 97t171 35t172 -34q80 -36 144 -98q31 -31 55.5 -67.5t41.5 -76.5t26 -83.5t9 -88.5q0 -44 -9 -87t-26 -83.5t-41 -77t-56 -66.5t-68 -55t-76 -41.5t-84 -25.5t-88 -9t-87 9t-83.5 25.5t-77.5 40.5q-36 26 -68 56 q-31 30 -55.5 66.5t-41.5 77t-26 83.5t-9 87zM95 432q0 -78 29 -148q30 -70 84 -125q54 -54 124 -83t148 -29q38 0 76 7.5t73 21.5t67 35t58 48q54 54 83 124.5t29 148.5q0 38 -7 76t-22 73t-36 67t-47 58q-26 27 -58 47.5t-67 35t-73 22t-76 7.5q-78 0 -148 -29t-124 -83 t-83.5 -125t-29.5 -149zM305 344q0 -82 57 -138q58 -56 138 -56q49 0 89 22q39 22 69 60l-34 34q-10 -16 -23.5 -28.5t-30 -21.5t-34.5 -14t-36 -5q-62 0 -106 43q-44 42 -44 104v176q0 30 12 58t32 48t47 32t59 12q18 0 36 -5t35 -14t30 -21t23 -28l34 32q-29 40 -68.5 62 t-89.5 22q-30 0 -57.5 -9t-51 -24.5t-41.5 -37.5q-19 -21 -30 -49q-15 -36 -15 -78v-176z" />
<glyph unicode="&#xab;" horiz-adv-x="436" d="M41 309l121 203l59 -30l-100 -173l100 -172l-59 -33zM219 309l119 203l62 -30l-101 -173l101 -172l-62 -33z" />
<glyph unicode="&#xad;" d="M71 276v68h471v-68h-471z" />
<glyph unicode="&#xae;" horiz-adv-x="905" d="M5 432q0 45 9 88t26 83.5t41.5 76.5t55.5 68q64 62 144.5 96.5t171.5 34.5q45 0 88 -8.5t83 -25.5t77 -41t68 -56q31 -31 55.5 -67.5t41.5 -77t26 -83.5t9 -88q0 -44 -9 -88t-26 -84t-42 -76q-24 -38 -55 -68q-31 -31 -68 -54.5t-77 -40.5t-83 -26t-88 -9q-44 0 -87.5 9 t-83.5 26t-77 41t-68 54t-55.5 67t-41.5 77t-26 84t-9 88zM68 432q0 -78 29 -149t83 -125t124 -83t149 -29q38 0 75.5 7.5t72.5 22t67 35.5t58 47q54 55 83 125t29 149q0 78 -29 148t-83 124q-26 27 -58 48t-67 35.5t-72.5 22t-75.5 7.5q-79 0 -149 -29q-70 -30 -124 -84 t-83 -124t-29 -148zM264 150h48v250h164l125 -250h53l-126 252q30 4 55 17t45 35q40 44 40 106q0 34 -13 62t-35 49t-51 32t-63 11h-242v-564zM312 446v221h194q23 0 43.5 -7.5t36.5 -22t25 -34t9 -43.5q0 -46 -33 -80q-35 -34 -81 -34h-194z" />
<glyph unicode="&#xbb;" horiz-adv-x="436" d="M37 137l100 172l-100 173l59 30l121 -203l-121 -205zM215 137l101 172l-101 173l59 30l122 -203l-122 -205z" />
<glyph unicode="&#xbc;" horiz-adv-x="778" d="M38 705v56h127v-444h-57v388h-70zM110 0l496 760h68l-494 -760h-70zM450 90v48l195 307h57v-299h43v-56h-43v-90h-56v90h-196zM522 146h124v196z" />
<glyph unicode="&#xbd;" horiz-adv-x="831" d="M37 704v56h127v-444h-56v388h-71zM109 0l497 760h67l-494 -760h-70zM509 0l1 28q2 27 7 54.5t15 47.5q13 30 31.5 52t43.5 38q4 3 9.5 6.5t15 8.5t24.5 12.5l39 19.5q7 4 14.5 8.5t14 11t10.5 14t4 15.5q0 15 -6 27.5t-16.5 22t-24 15t-27.5 5.5h-35q-23 0 -41 -12 q-17 -10 -26 -28l-6 -12l-42 42l5 7q17 26 46 42q28 16 64 16h35q28 1 50 -9q23 -10 41 -27t28 -40q6 -12 8 -23.5t2 -25.5q0 -12 -2.5 -22t-8.5 -20q-10 -18 -25 -31t-32 -23q-6 -4 -17.5 -9t-23.5 -12t-24.5 -13t-21.5 -12q-19 -10 -32 -27t-23 -39q-11 -22 -15 -52h225 v-56h-284z" />
<glyph unicode="&#xbe;" horiz-adv-x="817" d="M20 378l42 42l6 -13q6 -15 24 -27q17 -12 38 -12h32q30 0 50 21t20 49q0 30 -20 50t-50 20h-70v56h70q30 0 50 20t20 48q0 30 -20 50q-18 20 -50 20h-32q-20 0 -38 -11q-16 -9 -24 -27l-6 -14l-42 42l4 7q16 27 44 43t62 16h32q51 0 89 -37q36 -37 36 -89q0 -32 -16 -60 q-13 -22 -31 -36q20 -16 31 -38q16 -28 16 -60q0 -52 -36 -89q-39 -36 -89 -36h-32q-34 0 -62 16t-44 43zM154 0l498 760h66l-494 -760h-70zM494 90v48l196 307h57v-299h43v-56h-43v-90h-56v90h-197zM566 146h125v196z" />
<glyph unicode="&#xd7;" horiz-adv-x="588" d="M84 501l50 49l160 -160l164 162l48 -49l-162 -163l158 -158l-49 -49l-159 158l-158 -158l-50 49l160 158z" />
<glyph unicode="&#xf7;" horiz-adv-x="620" d="M56 276v66h514v-66h-514zM261 139q0 19 15 35q14 14 34 14t34 -14q16 -16 16 -35q0 -20 -16 -34q-14 -15 -34 -15q-10 0 -18.5 3.5t-15.5 11.5q-15 14 -15 34zM261 476q0 22 14 34q14 14 35 14q22 0 36 -14t14 -34q0 -22 -14 -36t-36 -14q-21 0 -35 14t-14 36z" />
<glyph unicode="&#x2000;" horiz-adv-x="682" />
<glyph unicode="&#x2001;" horiz-adv-x="1365" />
<glyph unicode="&#x2002;" horiz-adv-x="682" />
<glyph unicode="&#x2003;" horiz-adv-x="1365" />
<glyph unicode="&#x2004;" horiz-adv-x="455" />
<glyph unicode="&#x2005;" horiz-adv-x="341" />
<glyph unicode="&#x2006;" horiz-adv-x="227" />
<glyph unicode="&#x2007;" horiz-adv-x="227" />
<glyph unicode="&#x2008;" horiz-adv-x="170" />
<glyph unicode="&#x2009;" horiz-adv-x="273" />
<glyph unicode="&#x200a;" horiz-adv-x="75" />
<glyph unicode="&#x2010;" d="M71 276v68h471v-68h-471z" />
<glyph unicode="&#x2011;" d="M71 276v68h471v-68h-471z" />
<glyph unicode="&#x2012;" d="M71 276v68h471v-68h-471z" />
<glyph unicode="&#x2013;" horiz-adv-x="971" d="M27 274v68h917v-68h-917z" />
<glyph unicode="&#x2014;" horiz-adv-x="2060" d="M27 274v68h2000v-68h-2000z" />
<glyph unicode="&#x2018;" horiz-adv-x="284" d="M102 758h83l-13 -208h-58z" />
<glyph unicode="&#x2019;" horiz-adv-x="288" d="M102 758h83l-13 -208h-58z" />
<glyph unicode="&#x201c;" horiz-adv-x="403" d="M98 758h84l-12 -208h-58zM225 758h81l-12 -208h-56z" />
<glyph unicode="&#x201d;" horiz-adv-x="404" d="M98 758h84l-12 -208h-58zM225 758h81l-12 -208h-56z" />
<glyph unicode="&#x2022;" horiz-adv-x="641" d="M121 318q0 40 16 76.5t43 63.5t63 42q37 16 77 16t76 -15.5t63 -42.5t43 -63.5t16 -76.5t-16 -76t-43 -63t-63 -43t-76 -16t-76.5 16t-64 43t-43 63t-15.5 76z" />
<glyph unicode="&#x202f;" horiz-adv-x="273" />
<glyph unicode="&#x205f;" horiz-adv-x="341" />
<glyph unicode="&#x20ac;" horiz-adv-x="950" d="M43 266v70h121q-2 10 -2 22v23v22.5t2 22.5h-121v70h135q20 60 56 110.5t84.5 87t108 56.5t126.5 20q49 0 101.5 -13t100.5 -39.5t87 -65t61 -89.5h-84q-22 33 -51.5 58t-64.5 42t-73 25t-75 8q-49 0 -94.5 -15t-84 -42t-68.5 -64t-48 -79h373v-70h-391q-2 -11 -3 -22.5 t-1 -22.5t1 -23t3 -22h391v-70h-373q18 -46 48 -84t69 -65t85.5 -42t96.5 -15q39 0 77 10t71.5 28t62.5 44q29 24 51 56h84q-24 -48 -61 -87t-82 -67t-96.5 -43t-106.5 -15q-68 0 -129.5 20.5t-111 58t-86 88.5t-54.5 113h-135z" />
<glyph unicode="&#x2122;" horiz-adv-x="906" d="M26 802v45h354v-45h-154v-490h-45v490h-155zM423 312v535h49l163 -257l165 257h49v-535h-45v458l-141 -220h-54l-141 220v-458h-45z" />
<glyph unicode="&#x25fc;" horiz-adv-x="560" d="M0 0v560h560v-560h-560z" />
</font>
</defs>
</svg>
