<?xml version="1.0" standalone="no"?>
<!DOCTYPE svg PUBLIC "-//W3C//DTD SVG 1.1//EN" "http://www.w3.org/Graphics/SVG/1.1/DTD/svg11.dtd" >
<svg xmlns="http://www.w3.org/2000/svg" xmlns:xlink="http://www.w3.org/1999/xlink" version="1.1">
<metadata></metadata>
<defs>
<font id="rsu_textbold" horiz-adv-x="612" >
<font-face units-per-em="2048" ascent="1638" descent="-410" />
<missing-glyph horiz-adv-x="512" />
<glyph unicode="&#x2b;&#x2d;" horiz-adv-x="644" d="M44 34v92h551v-92h-551zM44 408v94h228v228h94v-228h228v-94h-228v-228h-94v228h-228z" />
<glyph unicode="&#x2e;&#x2e;&#x2e;" horiz-adv-x="1024" d="M122 0v130h130v-130h-130zM442 0v130h130v-130h-130zM762 0v130h130v-130h-130z" />
<glyph horiz-adv-x="0" />
<glyph unicode="&#xd;" horiz-adv-x="579" />
<glyph unicode=" "  horiz-adv-x="512" />
<glyph unicode="&#x09;" horiz-adv-x="512" />
<glyph unicode="&#xa0;" horiz-adv-x="512" />
<glyph unicode="!" horiz-adv-x="307" d="M102 0v136h96v-136h-96zM102 198v572h96v-572h-96z" />
<glyph unicode="&#x22;" horiz-adv-x="360" d="M64 769h108l-14 -252h-80zM188 769h106l-14 -252h-78z" />
<glyph unicode="#" horiz-adv-x="701" d="M12 208l14 94h120q4 28 9 54.5t9 53t8.5 52.5t9.5 55h-120l14 95h116l28 157h96l-24 -157h164l30 157h96l-25 -157h125l-13 -95h-127q-4 -28 -8.5 -54.5t-9 -52.5t-8.5 -53t-8 -55h126l-16 -94h-126l-34 -208h-96l35 208h-169q-4 -24 -8 -51t-8.5 -54t-9 -53t-7.5 -50 h-95l34 208h-122zM242 302h170l34 215h-170q-4 -28 -8 -54.5t-8 -52.5t-8 -53q-6 -27 -10 -55z" />
<glyph unicode="$" horiz-adv-x="625" d="M66 220v15l90 17v-18q1 -24 12 -44q12 -21 34 -37q29 -21 65 -29v234q-42 13 -77 30.5t-59 37.5q-29 26 -45 58t-16 69q0 42 20 80v-1q10 18 23.5 35t29.5 31q17 14 36 25t41 19v-1q12 4 24 7.5t23 5.5v84h89v-84q12 -2 23 -5t23 -7q22 -8 41 -18t35 -22q32 -28 52 -62 q22 -38 22 -78l1 -14l-90 -15v20q0 22 -11 42q-10 21 -32 37q-14 10 -31 18t-33 12v-235l8 -2l6 -3l11 -2h-1q20 -6 40 -14t39 -20q38 -24 67 -60q14 -19 22.5 -42.5t8.5 -50.5q-1 -42 -21 -81q-10 -18 -22.5 -34t-29.5 -31q-16 -13 -37 -25q-21 -10 -41 -18q-24 -8 -50 -12 v-86h-89v86q-12 2 -23.5 4.5t-21.5 6.5q-22 7 -41 17t-37 22q-16 13 -30 28.5t-24 33.5q-22 36 -24 76zM160 553q0 -32 27 -57.5t80 -43.5v210q-37 -8 -65 -30q-42 -32 -42 -79zM356 123q18 4 36 11q18 8 32 19q42 32 42 80q0 30 -28 55.5t-82 45.5v-211z" />
<glyph unicode="%" horiz-adv-x="753" d="M3 615q-1 71 49 119q48 49 120 49q70 0 120 -49h-1q51 -48 51 -119t-50 -119q-48 -48 -120 -49q-72 1 -120 49q-50 50 -49 119zM74 0l505 772h95l-501 -772h-99zM87 615q0 -36 25 -60q24 -25 60 -25t60 26q26 24 26 59t-26 59q-26 26 -60 26t-60 -26q-25 -25 -25 -59z M387 156q0 70 50 118h-1q50 50 121 50q69 0 119 -50q48 -48 49 -118q-1 -70 -49 -120q-50 -50 -119 -49q-71 -1 -121 49h1q-50 48 -50 120zM470 156q0 -18 7 -33t19 -27q26 -24 61 -24t59 24q26 26 26 60t-26 59q-25 25 -59 25q-17 0 -33 -7t-28 -18q-12 -12 -19 -27 q-7 -14 -7 -32z" />
<glyph unicode="&#x26;" horiz-adv-x="703" d="M48 219q0 38 11 69.5t30 57.5t45.5 46.5t58.5 35.5q-13 13 -25 26t-25 26q-24 28 -39.5 62t-15.5 74q0 38 16 74t42 64q28 27 62 42q36 16 76 16q38 0 74.5 -16t63.5 -42q27 -27 42 -63.5t15 -74.5q0 -78 -45 -142q-38 -54 -94 -82l142 -148q2 12 1 27q0 24 -7 47.5 t-17 45.5l-9 20h95q24 -55 24 -113q0 -49 -19 -101l126 -134l-58 -58l-110 116q-20 -24 -46 -44.5t-55 -34.5t-60 -21.5t-63 -7.5q-36 0 -69 10t-61 29t-50 45q-24 27 -38 59q-18 41 -18 90zM132 223q0 -15 3 -30t9 -29q9 -20 23.5 -37t32.5 -29.5t39 -19t43 -6.5 q24 0 48 5.5t45.5 16t40 26.5t31.5 37l-195 208q-25 -7 -46.5 -20t-37.5 -31t-26 -41t-10 -50zM172 616q0 -23 9 -42.5t23 -35.5l78 -82q44 12 77 55q37 46 37 105q0 45 -34 78q-34 34 -78 34t-78 -34q-16 -16 -25 -36t-9 -42zM447 157l7 -7l-4 8l2 6z" />
<glyph unicode="'" horiz-adv-x="235" d="M64 770h107l-13 -263h-81z" />
<glyph unicode="(" horiz-adv-x="340" d="M48 342q0 134 48 252t138 208l16 16l60 -70l-12 -14v1q-38 -38 -67 -82.5t-50 -94.5q-21 -51 -31 -105t-10 -111q0 -118 41 -214q43 -99 117 -179v1l12 -14l-61 -70l-15 16q-44 45 -77.5 96.5t-58.5 111.5q-50 118 -50 252z" />
<glyph unicode=")" horiz-adv-x="331" d="M20 -66l13 14q74 79 116 178q41 98 41 214q0 114 -41 216q-20 50 -49.5 94t-66.5 83v-1l-13 14l61 70l15 -16q45 -45 79.5 -96.5t58.5 -111.5q24 -58 36.5 -121t12.5 -131t-12.5 -131t-38.5 -121q-25 -58 -58.5 -110.5t-77.5 -97.5l-15 -15z" />
<glyph unicode="*" horiz-adv-x="621" d="M48 654l32 86l183 -57l-2 185h92l-3 -185q44 14 92 29q49 14 92 28l32 -86l-190 -56l117 -162l-77 -47l-113 161l-109 -164l-72 55l110 159q-44 13 -92 27.5t-92 26.5z" />
<glyph unicode="+" horiz-adv-x="644" d="M45 280v94h228v228h94v-228h228v-94h-228v-228h-94v228h-228z" />
<glyph unicode="," horiz-adv-x="306" d="M77 -77l85 228h135l-130 -228h-90z" />
<glyph unicode="-" d="M60 271v92h488v-92h-488z" />
<glyph unicode="." horiz-adv-x="311" d="M92 0v130h130v-130h-130z" />
<glyph unicode="/" horiz-adv-x="448" d="M24 -128l310 938h96l-306 -938h-100z" />
<glyph unicode="0" horiz-adv-x="548" d="M20 237v253q0 50 20 96t54 80q35 35 80.5 54.5t97.5 19.5q24 0 48.5 -5t47 -14.5t43.5 -23t38 -31.5q35 -34 55 -80t20 -96v-253q0 -26 -6 -51.5t-14 -47.5q-10 -22 -24 -42t-30 -37v1q-17 -18 -38 -31.5t-44 -23t-47.5 -14.5t-48.5 -5q-50 0 -97 19t-81 54 q-16 16 -30 36.5t-24 42.5t-15 47.5t-5 51.5zM105 237q1 -68 49 -118q48 -49 118 -49t116 48q24 24 36.5 54t12.5 65v253q-1 68 -49 118q-48 48 -116 48q-70 0 -119 -48q-48 -48 -48 -118v-253z" />
<glyph unicode="1" horiz-adv-x="520" d="M141 658v85h206v-743h-85v658h-121z" />
<glyph unicode="2" horiz-adv-x="557" d="M25 0q0 24 0.5 41t3.5 33q4 42 12.5 77t20.5 64q22 48 54 88t74 66q14 8 26 14.5t22 12.5l16 8t18 10q14 7 25 13q11 5 22 11l24 12h-1q11 6 20.5 12t18.5 14q16 13 27 28.5t11 35.5q1 54 -39 88q-40 36 -93 36h-61q-21 0 -38.5 -5t-33.5 -14q-16 -10 -29.5 -26.5 t-26.5 -38.5l-64 63q18 26 40 46q21 19 45 33q24 13 50.5 20.5t56.5 7.5h61q22 0 43 -4q20 -5 40 -13q40 -17 70 -45q16 -14 28 -31t20 -36t12 -39t4 -42q0 -38 -17 -69t-43 -55q-12 -10 -26 -19.5t-29 -17.5q-10 -6 -20 -11q-11 -4 -19 -8l-40 -22l-72 -40v1 q-32 -20 -55 -48.5t-41 -68.5q-10 -20 -16 -44t-10 -53h388v-85h-479z" />
<glyph unicode="3" horiz-adv-x="532" d="M20 92l64 65q12 -24 24 -40.5t28 -26.5q28 -19 66 -19h57q55 0 89 36q36 37 36 88q0 53 -36 91q-35 36 -89 36h-115v85h115q53 0 89 36t36 88q0 53 -36 89t-89 36h-57q-36 0 -66 -19t-52 -67l-64 64q16 28 36 48q20 18 44 32q46 26 102 27h57q89 0 149 -61 q60 -60 60 -149q0 -56 -26 -103q-22 -38 -57 -64q18 -14 31.5 -30t25.5 -36q26 -47 26 -103q0 -89 -60 -149q-62 -60 -149 -60h-57q-56 0 -102 26q-48 28 -80 80z" />
<glyph unicode="4" horiz-adv-x="526" d="M2 151v76l330 518h89v-509h72v-85h-72v-151h-85v151h-334zM108 236h228v358q-29 -46 -57.5 -90t-56.5 -88t-56 -89t-58 -91z" />
<glyph unicode="5" horiz-adv-x="513" d="M12 123l64 65q14 -30 31 -53t37 -37t42 -20q22 -7 48 -7q70 1 118 49q50 50 50 118v20q0 66 -46 106v-1q-48 41 -122 41h-199v333h421v-85h-336v-162h114q110 0 182 -66q70 -66 70 -166v-20q0 -52 -20 -98q-10 -24 -23 -44t-31 -36q-16 -16 -36 -30t-42 -24 q-46 -20 -100 -20q-70 0 -127 36q-29 18 -53 43.5t-42 57.5z" />
<glyph unicode="6" horiz-adv-x="545" d="M16 237v235q0 54 21 104t58 88q38 38 87 58q48 20 104 20q28 0 56.5 -6t55 -18.5t50.5 -31t44 -41.5l-59 -61q-32 34 -68.5 54t-78.5 20q-78 0 -131 -54q-54 -56 -54 -132v-27q35 32 77 48t90 16q50 0 96 -19.5t80 -54.5q36 -36 55 -81.5t19 -96.5v-20q0 -50 -20 -96.5 t-54 -81.5q-34 -34 -80 -53.5t-96 -19.5t-96 19q-48 19 -82 55v-1q-34 34 -54 81t-20 97zM101 237q0 -35 12.5 -64t36.5 -54q48 -49 118 -49q69 0 117 49q48 48 48 118v20q0 69 -48 118t-117 49t-118 -49q-24 -24 -36.5 -53.5t-12.5 -64.5v-20z" />
<glyph unicode="7" horiz-adv-x="567" d="M51 660v85h472l-223 -745h-88l198 660h-359z" />
<glyph unicode="8" horiz-adv-x="585" d="M33 195v2q0 30 9.5 56.5t27.5 50.5q15 20 33.5 36.5t41.5 29.5q-38 30 -60.5 70.5t-22.5 90.5v2q0 32 11 61.5t30 54.5t44 45.5t54 32.5q20 8 43 12t47 4q23 0 45 -4.5t43 -11.5q40 -16 71.5 -44.5t49.5 -66.5q18 -40 18 -83v-2q0 -50 -22.5 -90.5t-60.5 -70.5 q22 -13 41.5 -30t33.5 -36q18 -24 27.5 -51t9.5 -56v-2q-1 -42 -21 -82q-21 -40 -58 -68q-36 -27 -78 -43q-22 -8 -47.5 -12t-51.5 -4q-54 0 -100 16q-21 7 -41 17.5t-38 24.5t-33 32t-25 38v-1q-20 40 -21 82zM118 195q0 -24 13 -47q11 -20 29 -34.5t40 -24t45 -14t46 -4.5 q28 0 58.5 8t55.5 23.5t41 38.5t16 54v2q0 30 -16 53.5t-41 39.5t-55 24t-59 8q-22 0 -45.5 -5t-45 -15t-40 -24t-29.5 -34q-6 -12 -9.5 -23.5t-3.5 -23.5v-2zM146 531q0 -51 42 -87q22 -19 47.5 -28t55.5 -9q60 1 101 37q42 35 42 87v2q0 28 -12.5 50.5t-32.5 38.5 t-45.5 25t-52.5 9t-53 -9t-46.5 -25t-33 -39t-12.5 -50v-2z" />
<glyph unicode="9" horiz-adv-x="549" d="M16 471v20q0 24 5 49.5t15 47.5q15 34 39 62t54 48.5t65 32t72 11.5q38 0 73 -11t65 -32t54 -49t40 -62q10 -22 15 -47t5 -50v-236q0 -56 -21.5 -104.5t-58 -85.5t-85.5 -58t-105 -21q-28 0 -56 6t-55 19t-51 31t-44 40l60 62q31 -35 67.5 -54.5t78.5 -19.5q38 0 72 15 t59 40t39.5 58t14.5 72v27q-34 -30 -76.5 -47t-90.5 -17q-50 0 -96 20t-80 55h1q-36 35 -55.5 81t-19.5 97zM101 471q0 -33 13 -64q14 -31 36 -54q24 -24 53.5 -36.5t62.5 -12.5q69 0 118 49q49 48 49 118v20q0 34 -13.5 64.5t-35.5 53t-53 36t-65 13.5q-25 0 -48.5 -8 t-43 -21t-35 -32t-25.5 -41q-14 -32 -13 -65v-20z" />
<glyph unicode=":" horiz-adv-x="315" d="M92 0v129h130v-129h-130zM92 432v130h130v-130h-130z" />
<glyph unicode=";" horiz-adv-x="297" d="M24 -68l86 228h134l-130 -228h-90zM106 432v130h129v-130h-129z" />
<glyph unicode="&#x3c;" horiz-adv-x="638" d="M40 294v74l554 262v-96l-427 -204q106 -50 213.5 -100.5t213.5 -100.5v-97z" />
<glyph unicode="=" horiz-adv-x="578" d="M42 167v92h488v-92h-488zM42 338v92h488v-92h-488z" />
<glyph unicode="&#x3e;" horiz-adv-x="636" d="M38 30v98l427 201l-427 203v96l554 -262v-74z" />
<glyph unicode="?" horiz-adv-x="521" d="M54 678l7 15q26 38 72 65q47 25 101 25h24q40 1 78 -15q18 -8 34 -18q18 -10 32 -24q28 -28 44 -62v-1q16 -37 15 -77q0 -72 -42 -122q-21 -24 -41 -45t-40 -38q-24 -17 -44 -55t-20 -92v-58h-90v58q0 23 3 44.5t8 38.5t12 33t15 30q17 26 37 44q8 9 17 17t16 15 q18 16 33 32t27 32q22 28 22 66q0 46 -34 78t-82 31h-24q-34 0 -62 -17q-14 -8 -26 -20q-10 -12 -18 -27l-11 -16zM184 0v125h90v-125h-90z" />
<glyph unicode="@" horiz-adv-x="939" d="M62 400q0 84 32 160t90 135q29 29 63.5 51.5t72.5 37.5t79 22.5t83 7.5q78 0 148 -25.5t126 -77.5q26 -24 47 -53.5t34.5 -62.5t21 -69t7.5 -73q0 -49 -10 -100t-32 -94q-22 -42 -57 -67.5t-85 -25.5q-13 0 -27.5 5t-28.5 12.5t-26 18.5t-19 24q-27 -28 -62 -40t-75 -12 q-47 0 -84.5 16t-63.5 44.5t-40 67.5t-14 85q0 47 16.5 91t47.5 78q32 33 74 50.5t88 17.5q26 0 48 -4q24 -4 42 -13q12 -6 23.5 -14.5t22.5 -20.5l6 44h91l-35 -281l-9 -59v1q-1 -6 2 -10.5t8.5 -7.5t12 -5t12.5 -2q9 0 17.5 6t15.5 14t13 18q8 10 12 19h-1q16 32 23 69.5 t7 74.5q0 27 -6.5 54t-17.5 52t-26.5 48t-33.5 41q-44 38 -100.5 58t-116.5 20q-32 0 -64 -6t-62 -18t-56.5 -30t-48.5 -41q-46 -46 -70.5 -106.5t-24.5 -126.5q0 -42 12 -85q10 -43 30 -79q21 -38 51.5 -68t67.5 -50q38 -21 84 -31.5t102 -10.5q14 0 30.5 2.5t34 6t34 8.5 t30.5 9l14 2l36 -86l-20 -2q-37 -12 -77.5 -19t-81.5 -7q-93 0 -175 30q-78 30 -137 84t-93 132q-16 38 -24 79.5t-8 86.5zM332 387q0 -26 8.5 -49.5t23.5 -40.5t36.5 -27t47.5 -10q27 0 53.5 13t44.5 34q10 11 17 24t15 28v-1q12 29 12 63q0 53 -33 85t-87 32 q-58 0 -98 -42q-20 -22 -30 -49t-10 -60z" />
<glyph unicode="A" horiz-adv-x="526" d="M-14 0l232 770h84l234 -770h-92l-44 158h-278l-46 -158h-90zM146 232h228l-114 372z" />
<glyph unicode="B" horiz-adv-x="579" d="M59 0v770h282q45 0 83 -15t70 -45q63 -59 63 -147q0 -59 -29 -106q-26 -39 -60 -65q18 -14 33 -31.5t27 -36.5q29 -50 29 -106q0 -22 -4.5 -43t-12.5 -41q-8 -19 -20 -36.5t-26 -32.5q-14 -14 -32 -26.5t-37 -20.5q-20 -8 -41.5 -13t-42.5 -5h-282zM144 85h197 q53 0 92 39q39 38 39 94q0 54 -39 93t-92 39h-197v-265zM144 434h197q54 0 93 36q38 36 38 90q0 56 -38 90q-19 18 -42.5 26.5t-50.5 8.5h-197v-251z" />
<glyph unicode="C" horiz-adv-x="565" d="M28 260v246q0 56 22 108q12 26 26 47t32 40q37 37 88 59q52 22 107 22q70 0 128 -32q56 -31 100 -92l-63 -60q-18 26 -36 45t-38 30q-42 23 -91 23q-79 0 -135 -55q-56 -57 -55 -135v-246q-1 -80 55 -134q55 -55 132 -55h3h4q48 0 87 23q20 12 39 30.5t35 43.5l63 -59 q-42 -60 -100 -92q-30 -16 -61.5 -23.5t-66.5 -7.5q-56 0 -107 22q-26 10 -48 25t-40 33t-32 40t-26 48q-22 50 -22 106z" />
<glyph unicode="D" horiz-adv-x="607" d="M58 0v770h226q56 0 106 -22q50 -23 86 -59q18 -18 33 -40.5t25 -46.5t16 -52t6 -56v-222q0 -26 -6 -54t-16 -51q-11 -24 -25.5 -46.5t-32.5 -40.5q-36 -36 -86 -58t-106 -22h-226zM144 85h140q38 0 72 15q18 7 32.5 17.5t27.5 22.5q26 26 40 60q16 32 16 72v222 q0 40 -16 74q-7 18 -17 33t-23 28t-28 23q-14 10 -32 18q-34 14 -72 14h-140v-599z" />
<glyph unicode="E" horiz-adv-x="608" d="M58 0v770h500v-86h-414v-247h352l-16 -85h-336v-267h414v-85h-500z" />
<glyph unicode="F" horiz-adv-x="599" d="M60 0v770h498v-86h-413v-254h350l-13 -84h-337v-346h-85z" />
<glyph unicode="G" horiz-adv-x="620" d="M28 265v237q0 58 22 108q20 50 60 90q19 19 41.5 33.5t47.5 26.5q53 22 109 22t108 -22t89 -60q19 -19 34 -41.5t26 -48.5q21 -52 21 -118h-86q0 92 -56 148q-54 56 -136 56q-40 0 -75 -14t-63 -42t-42.5 -62.5t-14.5 -75.5v-237q0 -40 14.5 -74.5t42.5 -62.5t63 -42.5 t75 -14.5q82 1 136 57q28 28 42 62t14 75v35h-204v86h290v-121q0 -56 -21 -108q-10 -24 -26.5 -47.5t-34.5 -41.5q-19 -18 -41.5 -34t-46.5 -26q-26 -11 -53 -16.5t-55 -5.5t-56 5.5t-53 16.5q-25 10 -47 26q-23 14 -42 34q-19 18 -34 41q-16 23 -26 48q-10 24 -16 52.5 t-6 55.5z" />
<glyph unicode="H" horiz-adv-x="684" d="M59 0v769h85v-334h386v334h85v-769h-85v350h-386v-350h-85z" />
<glyph unicode="I" horiz-adv-x="214" d="M64 0v770h84v-770h-84z" />
<glyph unicode="J" horiz-adv-x="367" d="M-8 38l59 60l13 -10q2 -1 3.5 -1.5t4.5 -2.5h1q7 -4 13 -6l14 -4h-2l2 -1h4l6 -1q2 0 5 -1l3 -1q42 0 72 29q29 27 29 69v601h85v-601q0 -76 -54 -129q-27 -26 -59.5 -39.5t-72.5 -13.5q-68 0 -126 52zM74 82l2 -1z" />
<glyph unicode="K" horiz-adv-x="611" d="M59 0v770h85v-339l324 339h116l-367 -384l406 -386h-121l-358 340v-340h-85z" />
<glyph unicode="L" horiz-adv-x="562" d="M58 0v770h84v-685h414v-85h-498z" />
<glyph unicode="M" horiz-adv-x="740" d="M59 0v770h86l223 -350l224 350h86v-770h-84v614l-182 -284h-86l-182 284v-614h-85z" />
<glyph unicode="N" horiz-adv-x="679" d="M58 0v770h86l386 -612v612h85v-770h-86l-385 612v-612h-86z" />
<glyph unicode="O" horiz-adv-x="587" d="M30 246v272q0 52 21 101q21 47 55 83q18 18 39 32t44 24q24 10 49 16q24 5 52 5q26 0 52 -5.5t48 -15.5q24 -11 44.5 -25.5t37.5 -30.5q18 -18 32 -38.5t24 -44.5t15.5 -49.5t5.5 -51.5v-272q0 -27 -5.5 -52.5t-15.5 -49.5q-11 -24 -24.5 -44t-31.5 -38q-17 -16 -38 -30 q-20 -16 -44 -26q-22 -10 -48 -15t-52 -5q-55 0 -101 20q-47 20 -83 56q-16 16 -30 38q-14 20 -25 44q-10 23 -15.5 49t-5.5 53zM115 246q-1 -72 51 -124q50 -51 124 -51q72 0 124 51q50 52 50 124v272q0 73 -50 125v-1q-52 52 -124 52q-36 0 -67 -13t-57 -39 q-52 -52 -51 -124v-272z" />
<glyph unicode="P" horiz-adv-x="643" d="M58 0v770h334q92 0 158 -62q64 -62 64 -154q0 -22 -4 -45t-13 -43q-8 -19 -20.5 -37.5t-26.5 -33.5q-15 -14 -32.5 -26.5t-38.5 -20.5q-20 -8 -42 -13t-45 -5h-248v-330h-86zM144 416h248q55 0 97 40q41 40 41 98q0 28 -10 51.5t-30 41.5q-40 37 -98 37h-248v-268z" />
<glyph unicode="Q" horiz-adv-x="579" d="M28 245v276q0 24 5.5 49.5t15.5 49t24 45t32 39.5q36 36 83.5 57t100.5 21q50 0 97 -20q46 -20 84 -57q18 -18 32 -39t24 -44.5t15 -49.5t6 -51v-276q0 -34 -9 -67.5t-27 -64.5l79 -77l-54 -51l-71 71q-29 -28 -75 -51q-50 -19 -101 -19q-55 0 -101 19q-26 10 -46 24.5 t-37 32.5q-18 18 -31.5 38t-23.5 42q-10 24 -16 50.5t-6 52.5zM113 245q0 -36 13 -67q14 -30 39 -56h-1q54 -52 125 -52q67 0 115 44l-90 90l55 53l80 -81q13 32 13 69v276q0 75 -49 124q-50 51 -124 51q-72 0 -124 -51t-52 -124v-276z" />
<glyph unicode="R" horiz-adv-x="645" d="M58 0v770h334q92 0 158 -62q64 -62 64 -154q0 -42 -14 -80q-8 -19 -18 -36q-10 -18 -22 -32q-26 -30 -62 -48q-14 -8 -29 -14t-33 -9q20 -40 41.5 -82.5t43 -85.5l42.5 -85l41 -82h-93l-167 330h-200v-330h-86zM144 416h248q56 0 97 40t41 98q0 56 -40 93t-98 37h-248 v-268z" />
<glyph unicode="S" horiz-adv-x="548" d="M6 207l84 17q4 -68 54 -106q50 -40 124 -40t126 40q50 36 50 92q0 90 -186 134q-248 58 -248 216q0 45 22 85v-1q20 40 56 70q18 14 39 26t43 20t47 12t51 4q24 0 49 -4t47 -11t43 -19t37 -25q17 -14 32 -31q14 -16 24 -34q12 -19 18 -42t7 -49l-85 -15q0 33 -12.5 59.5 t-37.5 46.5q-50 40 -122 40q-74 0 -124 -40q-49 -38 -49 -90q0 -48 45.5 -81.5t137.5 -54.5l38 -10h-1q6 -1 12.5 -3.5t14.5 -4.5q42 -14 84 -37q21 -12 38.5 -28.5t32.5 -34.5h-1q16 -20 24 -44q8 -26 8 -54q0 -22 -5 -43t-15 -41q-22 -41 -56 -70q-18 -14 -39 -26t-45 -20 q-48 -16 -100 -16t-97 15q-22 7 -43 18t-39 25q-39 28 -59 64h1q-21 38 -25 91z" />
<glyph unicode="T" horiz-adv-x="519" d="M-2 684v86h519v-86h-219v-684h-84v684h-216z" />
<glyph unicode="U" horiz-adv-x="646" d="M59 246v523h85v-523q0 -18 3 -35t11 -33q7 -16 16 -30t21 -26t25.5 -21.5t29.5 -16.5t32.5 -10t34.5 -3h3q70 0 121 51t51 124v523h85v-523q-1 -54 -21 -102q-10 -24 -24 -44t-31 -38q-18 -18 -38.5 -32t-43.5 -24q-24 -10 -49.5 -15t-52.5 -5q-26 0 -51 5t-49 15t-45 24 q-20 14 -37 32q-17 17 -31 38q-14 20 -24 44q-10 22 -15.5 49t-5.5 53z" />
<glyph unicode="V" horiz-adv-x="545" d="M-4 770h90l182 -604l183 604h91l-232 -770h-83z" />
<glyph unicode="W" horiz-adv-x="812" d="M-8 769h92l179 -601l95 316h84l94 -316q45 150 90.5 301t89.5 300h90l-232 -769h-76l-98 327l-98 -327h-76z" />
<glyph unicode="X" horiz-adv-x="625" d="M-15 0l272 384l-271 386h103l221 -314q54 78 110 157t111 157h101l-271 -386l271 -384h-101l-221 310l-220 -310h-105z" />
<glyph unicode="Y" horiz-adv-x="657" d="M5 770h103l221 -315l219 315h104l-280 -402v-368h-85v368q-34 48 -69.5 99t-71.5 102l-72 102t-69 99z" />
<glyph unicode="Z" horiz-adv-x="606" d="M4 0v62l473 622h-447v86h568v-66l-472 -622h448v-82h-570z" />
<glyph unicode="[" horiz-adv-x="387" d="M103 -290v1221h248v-90h-154v-1039h154v-92h-248z" />
<glyph unicode="\" horiz-adv-x="570" d="M70 802h100l258 -802h-98z" />
<glyph unicode="]" horiz-adv-x="384" d="M28 -198h154v1039h-154v90h248v-1221h-248v92z" />
<glyph unicode="^" horiz-adv-x="741" />
<glyph unicode="_" horiz-adv-x="886" d="M-8 -107h896v-101h-896v101z" />
<glyph unicode="`" horiz-adv-x="442" d="M58 866l66 75l256 -257l-68 -71z" />
<glyph unicode="a" horiz-adv-x="553" d="M30 240v88q0 27 5 52.5t14 47.5q10 22 22.5 42.5t28.5 37.5t35 31t39 24q22 10 45 15.5t48 5.5q48 0 89 -19q32 -14 62 -39v46h88v-572h-88v42q-14 -12 -30 -22t-32 -16q-20 -9 -43 -13.5t-46 -4.5q-51 0 -93 20q-21 10 -40 24q-18 12 -34 30q-16 17 -29 37.5t-22 42.5 q-10 23 -14.5 47.5t-4.5 52.5zM117 240q1 -68 45 -118t105 -50t105 50q24 24 35 54t11 64v88q0 70 -45 119q-44 49 -106 49t-106 -49h1q-44 -49 -45 -119v-88z" />
<glyph unicode="b" horiz-adv-x="575" d="M52 -6v800h88v-268q62 58 149 58q48 0 91.5 -20.5t75.5 -54.5q16 -18 28.5 -37.5t22.5 -43.5q19 -46 19 -98v-87q0 -53 -19 -100q-10 -24 -22.5 -44.5t-28.5 -36.5q-16 -18 -35 -32t-40.5 -24t-45 -15t-46.5 -5q-42 0 -80.5 16t-68.5 42v-50h-88zM140 243q0 -70 44 -120 q44 -49 105 -49t105 50v-1q44 50 45 120v87q0 34 -11.5 64t-33.5 54h1q-44 48 -106 48t-105 -48q-44 -50 -44 -118v-87z" />
<glyph unicode="c" horiz-adv-x="482" d="M28 240v90q0 54 20 98q9 23 22 43q12 19 28 37q32 36 76 56q42 20 92 20q60 0 108 -28q46 -28 86 -81l-64 -61q-13 20 -27.5 35.5t-30.5 25.5q-32 21 -72 21q-62 0 -106 -48q-22 -24 -33 -54t-11 -64v-90q0 -34 11 -64t33 -54q44 -50 106 -50q40 0 72 22q16 10 30.5 26 t27.5 38l64 -64q-19 -26 -41.5 -47t-44.5 -34q-24 -13 -52 -20t-56 -7q-24 0 -48 5t-44 15t-40 24q-20 12 -36 30q-32 35 -50 80q-20 46 -20 100z" />
<glyph unicode="d" horiz-adv-x="558" d="M30 240v90q0 50 18 97t52 81q16 16 35 30t41 24.5t44 16t46 5.5q42 0 80 -15t70 -42v267h88v-800h-88v49q-32 -26 -70 -41q-38 -16 -80 -16q-24 0 -46 5.5t-44 16t-41 24.5t-35 30q-33 36 -52 82q-18 46 -18 96zM117 240q1 -70 45 -118q22 -24 48 -36t56 -12q62 0 106 48 t44 118v90q0 69 -44 118t-106 49q-30 0 -56 -13q-26 -12 -48 -36q-21 -24 -33 -54t-12 -64v-90z" />
<glyph unicode="e" horiz-adv-x="538" d="M29 240v90q0 50 17.5 95.5t49.5 81t75 56.5t95 21q32 0 63 -9t57 -26t48 -40t38 -51t24 -59q8 -28 7 -57v-7v-81h-386v-14q0 -32 11 -62.5t31 -54t47.5 -37.5t59.5 -14q18 0 37 6.5t36 18t31 27.5q14 14 26 34l65 -64q-18 -25 -39.5 -45t-46.5 -34.5t-53 -21.5t-56 -7 q-52 0 -93 20q-34 16 -60.5 40.5t-45.5 55t-28.5 65.5t-9.5 73zM117 341h298q-1 30 -13 58.5t-32 50t-47 34.5t-57 13t-57 -13t-47 -34.5t-32 -50t-13 -58.5z" />
<glyph unicode="f" horiz-adv-x="374" d="M2 498v88h88v72q0 30 12 58t33 50t50 35t61 13q36 0 69 -19t62 -49l-65 -66q-29 46 -66 46q-14 0 -26 -5t-21 -14.5t-15 -22t-6 -26.5v-72h142v-88h-142v-498h-88v498h-88z" />
<glyph unicode="g" horiz-adv-x="565" d="M30 240v90q0 50 16 96t52 82q33 34 75.5 55t92.5 21q84 0 150 -58v50h88v-584q0 -26 -6 -51t-16 -50t-25 -46.5t-33 -39.5h1q-38 -38 -86 -59q-49 -20 -103 -20q-48 0 -92 18t-86 50l62 64q27 -22 56.5 -33t59.5 -11q74 0 128 52q52 52 52 126v51q-32 -26 -70 -41 q-38 -16 -80 -16q-99 0 -168 74q-68 74 -68 180zM117 240q1 -70 45 -118q42 -48 104 -48t106 48t44 118v90q0 68 -44 118q-44 48 -106 48t-104 -48q-44 -49 -45 -118v-90z" />
<glyph unicode="h" horiz-adv-x="558" d="M49 0v800h87v-265q60 49 140 49q48 0 89 -16.5t75 -49.5q33 -34 49.5 -74t16.5 -87v-357h-88v357q0 56 -42 98q-42 41 -100 41q-28 0 -52 -10t-46 -31q-42 -42 -42 -98v-357h-87z" />
<glyph unicode="i" horiz-adv-x="229" d="M69 0v572h87v-572h-87zM69 650v125h87v-125h-87z" />
<glyph unicode="j" horiz-adv-x="193" d="M-146 -208l51 50l19 -2q8 -16 23 -23.5t35 -7.5q14 0 26.5 5.5t21.5 14.5t14 21t5 27v695h87v-695q0 -67 -45 -112q-45 -43 -109 -43q-78 0 -128 70zM49 650v125h87v-125h-87z" />
<glyph unicode="k" horiz-adv-x="529" d="M50 0v811h87v-811h-87zM120 280l298 292h122l-294 -292q34 -33 72 -68.5t76 -71.5t75.5 -72t71.5 -68h-123z" />
<glyph unicode="l" horiz-adv-x="187" d="M49 0v814h87v-814h-87z" />
<glyph unicode="m" horiz-adv-x="875" d="M51 0v576h87v-34q27 19 59 30q33 12 67 12q50 0 94 -22t74 -62q14 20 33 36t41 26.5t46 16t50 5.5q44 0 82.5 -17t67.5 -46t46 -68t17 -81v-372h-87v372q0 26 -10 48.5t-27 39.5t-40 26.5t-49 9.5t-49 -9.5t-40 -26t-27 -39.5t-10 -49v-372h-88v372q0 26 -9.5 49 t-26 39.5t-39.5 26t-49 9.5t-49 -9.5t-40 -26.5t-27 -39.5t-10 -48.5v-372h-87z" />
<glyph unicode="n" horiz-adv-x="562" d="M49 0v576h88v-42q62 50 142 50q95 0 161 -66t66 -164v-354h-88v354q0 60 -42 100q-42 42 -97 42q-30 0 -55 -10q-24 -12 -46 -32q-42 -41 -41 -100v-354h-88z" />
<glyph unicode="o" horiz-adv-x="577" d="M30 240v90q0 108 73 180q74 74 181 74q106 0 180 -74t74 -180v-90q0 -106 -74 -180q-72 -74 -180 -74q-53 0 -98.5 18t-82.5 56q-73 73 -73 180zM116 240q0 -70 50 -118q49 -49 115 -49h2.5h3.5q66 0 115 49q48 48 48 118v90q0 70 -48 117q-50 49 -118 49q-69 0 -118 -49 q-50 -47 -50 -117v-90z" />
<glyph unicode="p" horiz-adv-x="557" d="M49 -226v802h87v-51q62 59 150 59q24 0 47 -5.5t44.5 -15.5t40.5 -24q20 -13 36 -31h-1q34 -35 53 -82q18 -48 18 -98v-88q0 -24 -5 -49t-14 -49t-22 -45t-30 -39q-32 -33 -76 -52.5t-91 -19.5q-88 0 -150 54v-266h-87zM136 240q0 -34 11.5 -64t33.5 -54q44 -50 105 -50 q62 0 106 50q44 48 44 118v88q0 70 -44 119t-106 49q-30 0 -56.5 -12.5t-48.5 -36.5q-21 -24 -33 -54.5t-12 -64.5v-88z" />
<glyph unicode="q" horiz-adv-x="563" d="M30 240v89q0 52 16.5 97.5t51.5 81.5q34 36 76 56t92 20q42 0 80 -16t70 -42v52h88v-803h-88v267q-32 -26 -70 -41t-80 -15q-50 0 -92 19.5t-76 55.5q-35 36 -51.5 82t-16.5 97zM117 240q0 -34 10.5 -64t33.5 -54q43 -49 105 -49t106 49q44 48 44 118v89q0 71 -44 119 t-106 48q-30 0 -56 -12t-48 -36q-44 -49 -45 -119v-89z" />
<glyph unicode="r" horiz-adv-x="400" d="M48 0v578h88v-34q52 40 122 40t142 -54l-64 -60q-36 26 -78 26q-50 0 -86 -35q-36 -36 -36 -87v-374h-88z" />
<glyph unicode="s" horiz-adv-x="435" d="M3 152l85 14q4 -44 35 -67q18 -12 38.5 -19t44.5 -7t44 7q20 6 38 19q16 12 25.5 27.5t9.5 31.5q0 2 -0.5 6t-2.5 10l1 -1q-1 4 -4 9.5t-9 11.5q-12 10 -37 24h1q-26 14 -76 26q-44 12 -80 29t-61 38.5t-38 48t-13 56.5q0 70 60 120t142 50t138 -44q56 -46 65 -120 l-88 -14q-2 22 -10.5 39t-23.5 27q-33 25 -81 25q-24 0 -45 -6.5t-37 -18.5q-33 -24 -33 -58q0 -54 126 -88q193 -46 193 -170q0 -72 -59 -122q-57 -50 -145 -50q-40 0 -76 12t-64 34q-27 22 -43 52t-20 68z" />
<glyph unicode="t" horiz-adv-x="375" d="M-2 484v88h88v146h88v-146h141v-88h-141v-343q0 -29 20 -49q20 -19 48 -19q19 0 35 11.5t31 34.5l64 -65q-12 -16 -28 -28.5t-32.5 -21t-34.5 -13.5q-17 -5 -35 -5q-64 0 -110 44q-46 46 -46 111v343h-88z" />
<glyph unicode="u" horiz-adv-x="562" d="M49 213v359h87v-359q0 -59 40 -99h1q42 -40 99 -41q58 1 100 41q40 40 40 99v359h90v-582h-90v42q-30 -23 -64.5 -34.5t-75.5 -11.5q-94 0 -160 66t-67 161z" />
<glyph unicode="v" horiz-adv-x="526" d="M-8 572h92l175 -463l173 463h94l-213 -572h-106z" />
<glyph unicode="w" horiz-adv-x="730" d="M-8 572h94l161 -432l67 185h89l67 -186l164 433h94l-212 -566l-7 -6h-81l-69 190q-16 -44 -32.5 -89t-32.5 -90v-7v-4h-88z" />
<glyph unicode="x" horiz-adv-x="462" d="M-13 572h104l138 -217l138 217h102l-187 -298l180 -274h-102l-131 203q-33 -52 -65 -101.5t-66 -101.5h-104l182 274z" />
<glyph unicode="y" horiz-adv-x="472" d="M-8 572h90l149 -446q37 111 75 223.5t74 222.5h94l-197 -588l-39 -117l-49 -148h-93l91 267z" />
<glyph unicode="z" horiz-adv-x="568" d="M42 0l312 484h-306v88h464l-312 -484h306v-88h-464z" />
<glyph unicode="{" horiz-adv-x="360" d="M36 320l79 78v238q0 82 25 155q12 36 31 72.5t45 72.5l66 -65q-38 -57 -56 -113q-16 -56 -16 -122v-258l-53 -58l53 -52v-264q0 -130 76 -242l-66 -64q-26 38 -45.5 75t-32.5 74v-1q-14 38 -20.5 77t-6.5 81v239z" />
<glyph unicode="|" horiz-adv-x="688" d="M298 0v770h87v-770h-87z" />
<glyph unicode="}" horiz-adv-x="360" d="M31 -237q77 110 77 242v265l52 51q-12 14 -26 29t-26 29v257q0 64 -18 124q-18 57 -56 112l67 65q53 -72 77 -145q24 -72 24 -156v-236l79 -80l-79 -76v-239q0 -42 -7 -81q-7 -38 -21 -76h1q-13 -36 -32.5 -73t-46.5 -75z" />
<glyph unicode="~" horiz-adv-x="637" />
<glyph unicode="&#xa2;" horiz-adv-x="579" d="M42 383q0 48 17 88.5t46 72t67 52.5q38 20 82 28v85h84v-84q31 -6 60.5 -19.5t55.5 -35.5t46 -50t33 -63h-95q-16 30 -43 50t-57 29v-305q60 16 100 75h97q-16 -34 -37 -62.5t-46.5 -49.5t-53.5 -34.5t-60 -19.5v-86h-84v86q-46 8 -84.5 29t-67 53t-44.5 73t-16 88z M132 385q0 -28 9.5 -53.5t26 -46t38.5 -35t48 -21.5v307q-26 -7 -48 -21.5t-38.5 -33.5t-26 -44t-9.5 -52z" />
<glyph unicode="&#xa3;" horiz-adv-x="585" d="M46 0v91h132q-4 56 -11 99t-17 80h-83v90h49l-15 34q-8 18 -16 35t-13.5 35t-9.5 37t-4 41q0 50 18 94t48 76t72 51t90 19q30 0 60 -9t57 -24t49 -36.5t39 -48t26 -56.5t9 -62v-35h-92q2 34 -8 65.5t-29.5 55.5t-46 38t-58.5 14q-27 0 -52 -10t-44 -27.5t-30.5 -42 t-11.5 -54.5t11 -60t25 -61q8 -16 15 -31.5t15 -37.5h177v-90h-147q9 -38 15 -81t10 -98h243v-91h-472z" />
<glyph unicode="&#xa5;" horiz-adv-x="645" d="M4 770h111l203 -404q24 48 51 99t53 103t52 102l50 100h109l-175 -339h165v-93h-213l-8.5 -17t-7.5 -14t-8 -15t-10 -18h247v-92h-253v-182h-100v182h-252v92h244l-33 64h-211v93h162z" />
<glyph unicode="&#xa9;" horiz-adv-x="964" d="M24 442q0 45 9 89t26 84.5t41 77.5t56 69q64 63 146 97.5t174 34.5q46 0 89.5 -9t84 -26t77.5 -41t69 -56t56 -69t41.5 -77.5t26.5 -84t9 -89.5q0 -45 -9.5 -88.5t-26.5 -84.5t-42 -78t-56 -67q-32 -31 -68.5 -55.5t-77.5 -41.5t-84.5 -26t-88.5 -9q-44 0 -88 9t-85 26 t-78 41t-69 56q-32 31 -56 67.5t-41 77t-26 84.5t-9 89zM110 442q0 -36 7.5 -72t21 -69t33.5 -63t44 -56q26 -24 56 -44t63.5 -34t69 -21t71.5 -7q73 0 140.5 27t119.5 79t79.5 119t27.5 141q0 36 -7.5 71.5t-21 69t-33.5 63.5q-19 30 -45 56q-25 26 -55.5 45.5t-63.5 33 t-69 20.5t-72 7q-74 0 -141 -28q-67 -26 -119 -78t-79 -119.5t-27 -140.5zM299 356q0 -20 3.5 -39t11.5 -37t18 -33t24 -27q13 -13 28.5 -24t33.5 -18q18 -8 36 -12t38 -4q49 0 91 22q20 12 37.5 28t33.5 38l-44 41q-12 -18 -25 -31t-28 -21q-31 -17 -65 -17q-56 0 -94 40 q-39 38 -39 94v174q0 56 39 94q40 40 94 40q34 0 65 -17q14 -8 27 -21q14 -14 26 -32l44 42q-30 42 -71 66q-41 22 -91 22q-20 0 -38 -4t-36 -12q-36 -16 -62 -42q-13 -13 -23.5 -28.5t-18.5 -32.5q-15 -35 -15 -75v-174z" />
<glyph unicode="&#xab;" horiz-adv-x="436" d="M28 316l128 216l80 -42l-101 -174l101 -174l-80 -44zM202 316l126 216l84 -42l-102 -174l102 -174l-83 -43z" />
<glyph unicode="&#xad;" d="M60 271v92h488v-92h-488z" />
<glyph unicode="&#xae;" horiz-adv-x="905" d="M-4 438q0 46 9 89t26.5 84t42 78t56.5 68q32 32 68.5 56.5t77 41.5t84.5 26t89 9q92 0 174 -35q81 -35 145 -98q32 -32 56.5 -68.5t42 -77.5t26.5 -84t9 -89q0 -45 -9 -89.5t-26.5 -84.5t-42 -77t-56.5 -68t-68 -55.5t-77 -41.5t-85 -26t-89 -9t-88.5 9t-84 26t-78.5 42 q-36 24 -68 55t-56.5 68t-42 77t-26.5 84t-9 90zM82 438q0 -36 8 -72t22 -69t34 -63t44 -56q26 -24 56 -44t63 -34t68.5 -21.5t71.5 -7.5t71.5 7t69 20.5t63.5 33.5q29 20 55 46q52 52 80 118.5t28 141.5q0 73 -28 140.5t-80 118.5q-25 26 -54.5 45.5t-63.5 33.5t-69 21 t-72 7q-74 0 -140.5 -28t-118.5 -79q-52 -52 -80 -119.5t-28 -139.5zM260 166h60v234h142l118 -234h67q-28 56 -59.5 118t-59.5 119q13 2 23.5 6t20.5 10q13 7 24 15q10 10 19 20q10 10 16.5 22t12.5 25q10 27 10 57q0 64 -46 108q-47 44 -112 44h-236v-544zM320 460v190 h176q40 0 69 -26q14 -13 21 -30q8 -16 8 -36q0 -40 -29 -69t-69 -29h-176z" />
<glyph unicode="&#xbb;" horiz-adv-x="436" d="M21 142l101 174q-24 42 -50.5 88t-50.5 86l81 42l128 -216l-128 -218zM196 142l101 174l-101 174l80 42l130 -216l-130 -218z" />
<glyph unicode="&#xbc;" horiz-adv-x="778" d="M28 693v79h150v-460h-80v381h-70zM88 0l504 772h96l-501 -772h-99zM434 88v64l197 310h75v-294h42v-80h-42v-88h-80v88h-192zM538 168h88v138z" />
<glyph unicode="&#xbd;" horiz-adv-x="831" d="M28 692v80h149v-461h-79v381h-70zM88 0l504 772h96l-502 -772h-98zM492 0v42q2 28 8 55t14 47q14 31 33.5 54.5t46.5 40.5q4 2 9 5.5t15 8.5t24 13q15 8 39 20q6 3 12.5 6.5t11.5 8.5t8 11t3 12q0 12 -5 22t-13 17t-19 11.5t-23 4.5h-34q-20 0 -34 -9q-14 -8 -22 -23 q0 -2 -2 -5.5t-4 -7.5l-4 -8q-4 -4 -4 -6l-58 59l10 16q10 14 22 25.5t27 20.5h-1q30 17 70 17h34q29 0 54 -10t44 -28q18 -18 30 -44q6 -12 8.5 -25t2.5 -27t-2.5 -26t-9.5 -23l1 1q-10 -19 -27 -33.5t-35 -24.5l-24 -12q-14 -8 -31 -16q-17 -10 -31 -18q-16 -10 -28 -24 t-20 -34q-4 -7 -6 -15.5t-5 -18.5h218v-80h-303z" />
<glyph unicode="&#xbe;" horiz-adv-x="817" d="M7 386l60 60l14 -29q6 -13 20 -21q12 -8 30 -9h32q12 0 21.5 3.5t17.5 12.5q16 15 16 39q0 26 -16 42t-39 16h-81v78h81q23 0 39 16t16 40t-16 40t-39 16h-32q-16 0 -30 -9q-14 -8 -20 -22l-14 -28l-60 60l11 15h-1q17 30 47 46q31 17 67 17h32q55 0 95 -39 q20 -20 30 -44t10 -52q0 -36 -18 -66q-4 -8 -10 -16t-12 -14q7 -6 12 -14q4 -6 10 -16q18 -30 18 -66q0 -55 -39 -95l-1 -1q-40 -38 -95 -38h-32q-37 0 -67 17q-14 8 -26 19.5t-21 27.5l1 -2zM132 0l505 772h95l-501 -772h-99zM477 88v64l197 310h76v-294h42v-80h-42v-88 h-80v88h-193zM582 168h88v138z" />
<glyph unicode="&#xd7;" horiz-adv-x="588" d="M68 504l66 66l158 -156l160 159l66 -67l-160 -159l156 -156l-66 -65l-156 154l-156 -154l-66 65l156 156z" />
<glyph unicode="&#xf7;" horiz-adv-x="620" d="M45 272v89h529v-89h-529zM247 149q0 12 4.5 22.5t13.5 19.5q9 10 20 14.5t23 4.5q24 0 42 -19q9 -10 13.5 -20t4.5 -22t-4 -22.5t-14 -20.5q-18 -18 -42 -18q-12 0 -23 4.5t-21 14.5l2 -1q-18 18 -19 43zM247 480q0 24 17 42q18 18 44 18q27 0 43 -18v1q17 -17 17 -43 q0 -27 -17 -44q-15 -18 -43 -18q-26 0 -44 18q-18 16 -17 44z" />
<glyph unicode="&#x2000;" horiz-adv-x="682" />
<glyph unicode="&#x2001;" horiz-adv-x="1365" />
<glyph unicode="&#x2002;" horiz-adv-x="682" />
<glyph unicode="&#x2003;" horiz-adv-x="1365" />
<glyph unicode="&#x2004;" horiz-adv-x="455" />
<glyph unicode="&#x2005;" horiz-adv-x="341" />
<glyph unicode="&#x2006;" horiz-adv-x="227" />
<glyph unicode="&#x2007;" horiz-adv-x="227" />
<glyph unicode="&#x2008;" horiz-adv-x="170" />
<glyph unicode="&#x2009;" horiz-adv-x="273" />
<glyph unicode="&#x200a;" horiz-adv-x="75" />
<glyph unicode="&#x2010;" d="M60 271v92h488v-92h-488z" />
<glyph unicode="&#x2011;" d="M60 271v92h488v-92h-488z" />
<glyph unicode="&#x2012;" d="M60 271v92h488v-92h-488z" />
<glyph unicode="&#x2013;" horiz-adv-x="971" d="M18 270v91h926v-91h-926z" />
<glyph unicode="&#x2014;" horiz-adv-x="2060" d="M23 270v91h1991v-91h-1991z" />
<glyph unicode="&#x2018;" horiz-adv-x="284" d="M88 770h108l-14 -229h-80z" />
<glyph unicode="&#x2019;" horiz-adv-x="288" d="M88 770h108l-14 -229h-80z" />
<glyph unicode="&#x201c;" horiz-adv-x="403" d="M86 770h108l-14 -229h-80zM210 770h106l-14 -229h-78z" />
<glyph unicode="&#x201d;" horiz-adv-x="404" d="M86 770h108l-14 -229h-80zM210 770h106l-14 -229h-78z" />
<glyph unicode="&#x2022;" horiz-adv-x="641" d="M110 326q0 42 16 79.5t44.5 65.5t66 44.5t80.5 16.5q42 0 79.5 -16.5t66 -44.5t45 -65.5t16.5 -79.5t-16.5 -80t-45 -67t-65.5 -45t-80 -16q-42 0 -80 16t-66.5 45t-44.5 67t-16 80z" />
<glyph unicode="&#x202f;" horiz-adv-x="273" />
<glyph unicode="&#x205f;" horiz-adv-x="341" />
<glyph unicode="&#x20ac;" horiz-adv-x="950" d="M34 262v93h118q0 8 -0.5 16t-0.5 16q0 10 -0.5 15.5t1.5 15.5h-118v94h136q20 60 57 109.5t86 85t108 55.5t127 20q50 0 103.5 -15t103 -44t90.5 -71t65 -98h-108q-21 32 -49.5 56.5t-62 41t-69.5 24.5q-35 8 -71 8q-44 0 -85 -13t-76 -36t-63 -55q-28 -30 -47 -68h359 v-94h-386q-1 -8 -1.5 -16t-0.5 -15t1 -16t1 -16h386v-93h-360q18 -40 46 -73.5t64 -57t78 -36t88 -12.5q37 0 72.5 9.5t68 27.5t60.5 43q27 25 49 57h109q-26 -53 -65.5 -96.5t-86 -74t-100 -47t-107.5 -16.5q-68 0 -129 20t-111 56.5t-87 87t-57 112.5h-136z" />
<glyph unicode="&#x2122;" horiz-adv-x="906" d="M18 788v69h372v-69h-152v-482h-68v482h-152zM407 306v551h67l154 -241l155 241h67v-551h-68v421q-30 -46 -61 -93.5t-59 -93.5h-66l-120 188v-422h-69z" />
<glyph unicode="&#x25fc;" horiz-adv-x="572" d="M0 0v572h572v-572h-572z" />
</font>
</defs>
</svg>
