<?xml version="1.0" standalone="no"?>
<!DOCTYPE svg PUBLIC "-//W3C//DTD SVG 1.1//EN" "http://www.w3.org/Graphics/SVG/1.1/DTD/svg11.dtd" >
<svg xmlns="http://www.w3.org/2000/svg" xmlns:xlink="http://www.w3.org/1999/xlink" version="1.1">
<metadata></metadata>
<defs>
<font id="rsu_textitalic" horiz-adv-x="612" >
<font-face units-per-em="2048" ascent="1638" descent="-410" />
<missing-glyph horiz-adv-x="512" />
<glyph unicode="&#x2b;&#x2d;" horiz-adv-x="644" d="M11 0q2 18 4.5 35t4.5 34h524q-2 -18 -5 -34.5t-5 -34.5h-523zM68 415q2 18 5 35.5t5 35.5h113.5h112.5l32 231h71q-8 -58 -16 -115q-9 -58 -17 -116q57 0 113 -0.5t113 -0.5q-2 -18 -4 -35.5t-5 -35.5h-227q-8 -58 -16 -115.5t-16 -115.5q-18 0 -35 0.5t-35 0.5 q8 58 16 115.5t16 115.5h-226z" />
<glyph unicode="&#x2e;&#x2e;&#x2e;" horiz-adv-x="1024" d="M70 0q36 26 71 53.5t70 54.5h105q-36 -27 -70.5 -54.5t-70.5 -53.5h-105zM386 0q37 26 72.5 53.5t71.5 54.5h106q-36 -27 -72 -54.5t-73 -53.5h-105zM706 0q36 27 70.5 54t70.5 54h104q-36 -27 -70.5 -54t-70.5 -54h-104z" />
<glyph horiz-adv-x="0" />
<glyph unicode="&#xd;" horiz-adv-x="579" />
<glyph unicode=" "  horiz-adv-x="512" />
<glyph unicode="&#x09;" horiz-adv-x="512" />
<glyph unicode="&#xa0;" horiz-adv-x="512" />
<glyph unicode="!" horiz-adv-x="307" d="M108 0q1 28 1.5 57t0.5 57h36h36q0 -28 -1 -57t-1 -57h-72zM112 202l10 556h72q-3 -140 -5.5 -278t-4.5 -278h-36h-36z" />
<glyph unicode="&#x22;" horiz-adv-x="360" d="M73 526l26 232h81l-26 -116l-26 -116h-55zM196 526q6 58 13 116t13 116h79q-13 -58 -25.5 -116t-25.5 -116h-54z" />
<glyph unicode="#" horiz-adv-x="701" d="M4 212q6 18 11 36q5 16 11 34h119q20 62 39.5 123t39.5 122q-30 0 -59.5 0.5t-59.5 0.5q6 18 11.5 35t10.5 35h57.5h57.5q14 40 27 80t27 80h70q-13 -40 -25.5 -80t-25.5 -80h95h94q13 40 28 80q14 40 27 80h71q-13 -40 -25.5 -80t-26.5 -80q32 0 63 -0.5t63 -0.5 q-6 -18 -11 -35.5t-11 -35.5h-63h-62q-20 -61 -39 -121.5t-38 -122.5h125l-24 -70h-125q-16 -54 -33.5 -107t-34.5 -105h-71q18 53 35.5 105.5t34.5 106.5h-96.5h-96.5q-17 -54 -34 -107q-16 -53 -34 -105h-68q16 54 34 106t34 106h-122zM215 282h194q20 61 38.5 122.5 t38.5 121.5q-48 0 -96 0.5t-97 0.5q-20 -62 -39.5 -122.5t-38.5 -122.5z" />
<glyph unicode="$" horiz-adv-x="625" d="M66 214v3l66 13v-4q-2 -26 8.5 -51t31.5 -41q17 -14 37.5 -23t42.5 -12l27 262q-36 10 -70.5 26.5t-61.5 42.5q-25 22 -36.5 55t-7.5 67q5 41 27 75q11 18 24.5 33.5t30.5 29.5t36 24q19 8 41 16q14 5 28 8q14 4 28 6l8 84h64q-2 -21 -4 -42.5t-4 -41.5q26 -2 52 -12 q18 -7 35 -17.5t32 -22.5q26 -26 43 -60q7 -17 11.5 -35t2.5 -37v-4l-65 -11v5q3 26 -8 50t-29 40q-16 15 -37 24q-21 8 -43 12q-6 -66 -13 -132l-14 -132q8 -3 16.5 -4.5t16.5 -5.5q36 -11 70 -33q18 -12 32 -26t26 -31q13 -19 17.5 -41.5t2.5 -45.5q-2 -21 -9 -40t-17 -37 q-23 -36 -56 -62q-18 -14 -38 -24t-40 -18q-14 -6 -29 -8t-31 -4l-8 -88h-66l10 88q-14 2 -27 5t-25 7q-19 6 -36 16t-33 22q-14 12 -25.5 27t-19.5 33q-16 34 -14 72zM168 552q-2 -26 8 -45.5t28 -34t40 -24.5q22 -12 42 -18q6 62 12.5 123.5t12.5 123.5q-48 -7 -87 -36 q-22 -16 -38 -38.5t-18 -50.5zM318 98q24 4 47 12q23 10 42 24q24 16 39.5 39.5t17.5 51.5q2 26 -9 45t-29.5 33.5t-41 24.5t-42.5 16q-6 -62 -12 -123t-12 -123z" />
<glyph unicode="%" horiz-adv-x="753" d="M36 2q150 191 302.5 379.5t303.5 378.5h79q-151 -190 -304 -379t-303 -379h-78zM60 555.5q-6 29.5 0 59.5q5 33 21.5 62t42.5 49q24 22 54 34q32 12 64 12q30 0 57 -11t45 -35q20 -23 27 -52.5t1 -59.5q-6 -33 -23 -62q-17 -28 -43 -50q-24 -22 -54.5 -34t-63.5 -12 q-29 0 -56.5 11t-45.5 35q-20 24 -26 53.5zM120 578q4 -18 16 -33q11 -14 27.5 -21.5t34.5 -7.5q20 0 40 8q19 6 34 20q16 13 27 31.5t14 38.5q4 18 -0.5 37t-16.5 33t-29 22t-35 7q-20 1 -39 -7.5t-34 -21.5q-16 -14 -26.5 -31t-12.5 -38q-4 -18 0 -37zM362 88q-6 28 0 58 q6 33 22.5 62.5t42.5 49.5q24 22 54.5 35t64.5 12q30 1 57 -11t45 -36q19 -24 25.5 -53t0.5 -59q-5 -33 -21.5 -61.5t-42.5 -50.5q-24 -22 -54.5 -35t-63.5 -12q-30 -1 -58 11t-46 36q-19 24 -26 54zM420 146q-3 -18 2 -36q4 -20 16 -34t29 -21t35 -7q20 0 39.5 7.5 t34.5 20.5q16 14 26 32t13 38q4 18 0 37q-5 19 -17 33t-28 22t-34 6q-21 1 -40 -7q-18 -8 -34 -21q-16 -14 -27 -31t-15 -39z" />
<glyph unicode="&#x26;" horiz-adv-x="703" d="M39 167.5q-1 22.5 1 44.5q4 36 20 68t40.5 59t55 47t63.5 33h1q-13 17 -25.5 33.5t-24.5 33.5q-21 28 -30 62q-10 34 -4 68q5 38 24.5 71t47.5 59q28 25 63 40t73 15q34 0 66.5 -14t54.5 -41t31 -62q10 -34 4 -69q-4 -38 -20 -73q-18 -34 -42 -64q-24 -28 -52.5 -50.5 t-62.5 -36.5l-1 -1q36 -46 72 -90q34 -44 70 -90l2 2q6 12 8 25t5 27q3 26 0 51t-11 49l-1 2h67q8 -25 8 -51q1 -25 -2 -51q-9 -54 -35 -106h-1q26 -33 52 -66.5t52 -66.5l-46 -42q-23 30 -46.5 59.5t-46.5 59.5l-1 1v-1q-22 -26 -49.5 -47t-58 -37t-64.5 -24t-68 -8 q-32 -1 -61 9t-53 29t-42 44.5t-26 55.5q-6 21 -7 43.5zM98.5 183q0.5 -17 5.5 -33q6 -22 18 -41t30 -32.5t39 -21t45 -7.5q28 0 56 7t53 20t47 32t38 41v2q-42 56 -86 111t-87 111l-1 1q-28 -7 -54.5 -21t-48 -34.5t-35.5 -46t-18 -55.5q-2 -16 -1.5 -33zM195 616 q-4 -24 3 -46.5t20 -41.5q18 -22 34 -44q16 -24 34 -46q30 7 55 23.5t45 39.5q22 24 36.5 53t18.5 61q4 24 -1.5 47t-21.5 41q-14 19 -36 28t-46 10q-26 0 -50 -10q-24 -9 -42 -27q-19 -18 -32.5 -40t-16.5 -48z" />
<glyph unicode="'" horiz-adv-x="235" d="M82 516q1 60 1.5 121t2.5 121h82q-7 -60 -14.5 -121t-14.5 -121h-57z" />
<glyph unicode="(" horiz-adv-x="340" d="M62 334q2 66 17 130t42 124q26 58 63 110q36 52 82 96l6 6q10 -13 21 -26t21 -26l-6 -5q-40 -40 -71 -85.5t-55 -97.5q-24 -53 -37 -110q-13 -58 -15 -116q-2 -56 4 -112t26 -110q20 -51 47 -97.5t63 -88.5l5 -5q-12 -13 -23.5 -26t-23.5 -26l-6 7q-40 46 -71 98t-52 110 q-22 60 -30.5 123t-6.5 127z" />
<glyph unicode=")" horiz-adv-x="331" d="M18 -80l6 6q40 40 71.5 87t55.5 98q24 52 37.5 108.5t15.5 114.5q3 58 -4.5 114t-27.5 110q-18 51 -45 97.5t-64 86.5l-4 6q12 12 23.5 25t23.5 25q1 -2 2.5 -3t2.5 -3q42 -45 73.5 -96.5t51.5 -109.5q21 -61 29.5 -124.5t5.5 -127.5q-3 -66 -18 -129t-43 -123 q-27 -58 -63.5 -110t-80.5 -98l-6 -6q-20 26 -42 52z" />
<glyph unicode="*" horiz-adv-x="621" d="M75 662q10 16 18.5 32t18.5 32l173 -60l37 193h68l-42 -193l198 60l10 -64q-52 -14 -102 -29t-102 -29q22 -42 43 -84t43 -85l-32 -18t-32 -17q-20 43 -40 85q-20 43 -42 85q-37 -43 -72.5 -85.5t-72.5 -86.5l-43 41l146 167q-44 13 -87.5 27.5t-87.5 28.5z" />
<glyph unicode="+" horiz-adv-x="644" d="M55 285q2 18 6 35.5t7 35.5h226l44 232h70l-44 -232h226l-13 -71h-227l-22 -116q-10 -59 -22 -117h-69q12 58 22.5 116t21.5 117h-226z" />
<glyph unicode="," horiz-adv-x="306" d="M80 -78q28 52 54 104q28 50 56 102h104q-38 -52 -75 -103t-75 -103h-64z" />
<glyph unicode="-" d="M32 276l88 68h460q-22 -18 -43 -35t-44 -33h-461z" />
<glyph unicode="." horiz-adv-x="311" d="M96 0q6 27 10 53.5t10 53.5h104q-4 -27 -9 -53.5t-9 -53.5h-106z" />
<glyph unicode="/" horiz-adv-x="448" d="M10 -132q90 233 184 465q94 233 186 465h68q-91 -233 -183.5 -464.5t-183.5 -465.5h-71z" />
<glyph unicode="0" horiz-adv-x="548" d="M19 181q-1 24 1 48q8 66 16 130t16 129q6 50 30 93t60 77q36 33 82 52.5t96 18.5q22 0 44 -4.5t42.5 -13.5t38.5 -23q19 -14 33 -31q30 -34 42 -79q14 -46 8 -91q-8 -65 -16 -129t-16 -129q-2 -26 -10 -49.5t-20 -45.5t-27 -41t-33 -36q-36 -33 -82 -52.5t-96 -19.5 q-22 0 -45 4.5t-43 13.5t-38 23t-33 31q-14 17 -24.5 36.5t-16.5 40.5q-8 23 -9 47zM80 229q-4 -34 4 -69q8 -34 32 -60q21 -27 53 -40.5t66 -12.5q37 -1 71 13t62 40q28 25 45 58.5t21 70.5q8 65 16 129t16 129q5 34 -3.5 68.5t-32.5 60.5q-21 27 -52.5 40t-65.5 12 q-37 1 -71.5 -13.5t-60.5 -38.5q-28 -24 -46 -57t-22 -71q-8 -65 -16 -129.5t-16 -129.5z" />
<glyph unicode="1" horiz-adv-x="520" d="M170 670q1 15 1.5 30.5t1.5 30.5h181q-9 -184 -17.5 -365.5t-16.5 -365.5h-60q8 168 15 335t16 335h-60.5h-60.5z" />
<glyph unicode="2" horiz-adv-x="557" d="M-2 0q2 16 4 31t6 31q8 36 20 71.5t30 68.5q26 46 60 85t79 65q21 12 43 24t43 23q18 10 36.5 18.5t38.5 16.5q12 6 22.5 13t20.5 15q18 14 33 32q16 19 18 43q4 27 -4 54t-28 46q-18 20 -43 30.5t-52 9.5h-61q-21 0 -41.5 -5.5t-38.5 -15.5t-33 -24t-25 -32 q-10 12 -20 22t-19 22q16 22 36.5 39t44.5 29t50 19t54 7h60q20 0 39 -4t37 -12q17 -8 32.5 -18t27.5 -24q13 -14 22 -31q8 -17 14 -34q6 -19 8 -39t0 -39q-4 -35 -24 -65q-19 -28 -46 -50q-13 -11 -28 -20q-14 -10 -28 -18q-20 -11 -41 -20.5t-41 -19.5l-78 -42 q-38 -22 -66 -54t-49 -69q-15 -28 -25 -57.5t-18 -59.5h389l-7 -62h-452z" />
<glyph unicode="3" horiz-adv-x="532" d="M9 80q12 12 24.5 23t24.5 23q6 -17 17 -31.5t25 -25.5q16 -11 34 -17q18 -4 36 -4h57q28 0 54.5 10t46.5 30q21 19 34.5 44.5t15.5 53.5q4 27 -3 53.5t-25 47.5q-16 21 -41 31.5t-51 9.5h-52h-50q2 16 3 31t3 31h102q28 0 54 10q28 10 48 30q21 19 33.5 44.5t14.5 53.5 q4 26 -3 53t-25 47q-17 20 -41.5 31t-50.5 9h-56q-20 0 -39 -5t-37 -15q-17 -10 -30 -24q-14 -14 -24 -32q-10 12 -20 22.5t-20 21.5q14 22 34 39t44 29q22 12 47 19t51 7h58q38 1 72.5 -14.5t58.5 -44.5q26 -29 36.5 -67t4.5 -76q-2 -26 -11 -51t-24 -47q-14 -22 -33.5 -40 t-41.5 -31q19 -14 34 -33t25 -41q11 -23 14.5 -48t0.5 -51q-4 -41 -23 -77.5t-49 -64.5q-14 -14 -31 -25t-36 -18.5t-39 -11.5q-20 -3 -40 -3h-56q-24 0 -48 6t-44 19q-20 12 -36 30t-27 39z" />
<glyph unicode="4" horiz-adv-x="526" d="M-8 154q2 16 4 31t3 31q96 130 191.5 258.5t193.5 258.5h70l-63 -517h72l-7 -62h-72q-4 -39 -9 -77t-10 -77h-61l20 154h-166h-166zM70 216h261l51 420q-78 -106 -156 -210t-156 -210z" />
<glyph unicode="5" horiz-adv-x="513" d="M4 112l48 46q8 -24 22.5 -44t33.5 -36q20 -16 44 -24q24 -6 48 -6q37 0 72 14q34 12 62 38t45 59t21 71q1 6 1.5 10t0.5 10q2 16 1 32t-5 31t-12 29t-19 25q-12 12 -26.5 21t-30.5 14.5t-33 7.5t-34 2h-185q9 79 17.5 156.5t17.5 157.5h393l-4 -32q0 -14 -2 -30h-334 q-6 -48 -11 -95t-11 -95h63h63q22 0 45 -3t44 -11t40.5 -20t35.5 -29q30 -32 42 -74.5t6 -86.5q0 -6 -1 -10t-1 -10q-2 -25 -10.5 -48.5t-20.5 -45.5q-24 -44 -59 -78q-18 -16 -38.5 -29.5t-42.5 -23.5t-47 -14.5t-49 -4.5q-31 0 -61 8q-29 8 -55 27q-25 16 -44 39 q-18 24 -30 52z" />
<glyph unicode="6" horiz-adv-x="545" d="M16 230q1 6 1.5 10.5t1.5 9.5q6 55 12.5 109.5t13.5 110.5q7 54 32.5 101.5t65.5 83.5q39 36 88.5 56t102.5 20q26 0 51 -5.5t48 -16.5t43 -27t34 -38q-12 -11 -23 -22t-24 -22q-12 16 -27 29t-32.5 22t-37.5 14t-40 5t-40 -4t-38.5 -11.5t-36 -18t-31.5 -24.5 q-32 -27 -51 -64.5t-24 -77.5q-2 -14 -3.5 -29t-3.5 -29q18 18 40 33.5t46 26.5t50 16.5t52 5.5q45 0 86.5 -19t71.5 -53q30 -36 42 -82q14 -44 8 -90q-1 -6 -1.5 -11t-2.5 -10q-6 -50 -30 -94t-60 -78q-36 -32 -81 -52.5t-95 -19.5q-46 -1 -88 18t-70 54q-30 36 -43 81.5 t-7 91.5zM76 230q-4 -34 5 -68q9 -36 31 -62q22 -27 54 -40.5t66 -12.5q37 0 71.5 13.5t60.5 39.5q27 26 44.5 59t21.5 70q1 6 1.5 10.5t1.5 10.5q4 34 -4.5 68t-30.5 60q-22 27 -53 41t-66 13q-37 0 -71 -14t-62 -40q-28 -25 -45.5 -57.5t-21.5 -70.5q-1 -6 -1 -10 q-1 -4 -2 -10z" />
<glyph unicode="7" horiz-adv-x="567" d="M102 673q2 15 3.5 30t3.5 30h440q-76 -184 -149.5 -366.5t-149.5 -366.5h-62q68 168 137 336t137 336z" />
<glyph unicode="8" horiz-adv-x="585" d="M28 187v2q4 28 16 53.5t31 47.5q20 24 44.5 42t52.5 30q-20 14 -35 33t-25 41t-13 46t0 48v2q4 32 17.5 60t34 52t47 43t55.5 29q42 16 87 16q21 0 41.5 -4t39.5 -12q36 -14 61.5 -43t37.5 -65q7 -18 8.5 -38t-0.5 -40l-1 -2q-3 -26 -13 -50t-25 -45t-34 -38.5t-41 -31.5 q24 -13 44 -31t34 -42q14 -22 20 -48t2 -53v-1v-1q-4 -41 -29 -77q-24 -40 -62 -67q-37 -27 -81 -42q-24 -8 -48 -11.5t-49 -3.5q-24 0 -47.5 3t-45.5 12q-38 14 -69 41.5t-45 67.5q-7 18 -9.5 38t-0.5 39zM88 187q-4 -28 8 -54q10 -23 26.5 -39t38 -26.5t45.5 -15t47 -4.5 q32 0 65 9t61.5 26t48.5 43t25 61l1 2q4 34 -10.5 60t-39 44t-55.5 27t-61 8q-26 0 -51 -5t-49 -16t-44 -27q-20 -14 -35 -36q-9 -12 -13 -26q-6 -14 -8 -29v-2zM158 530q-4 -27 5 -54.5t29 -45.5q20 -22 48 -32q28 -8 56 -8q32 -1 61 9.5t53 30.5q24 18 39 44q15 24 19 54 v2q5 29 -5.5 54.5t-30.5 44.5t-46 30t-54 9q-30 0 -59 -10t-53 -28t-41 -43t-21 -55v-2z" />
<glyph unicode="9" horiz-adv-x="549" d="M28 72q12 12 23.5 23t23.5 22q11 -16 26.5 -29.5t33 -22.5t37.5 -14t40 -4q41 0 79 16t68 43.5t49 63.5q20 38 24 78l4 28t4 29q-18 -18 -40 -33.5t-46 -26t-50 -16t-52 -5.5q-22 0 -44.5 4t-43 13.5t-38.5 23t-32 30.5q-16 17 -26.5 38t-16.5 43t-7.5 45.5t1.5 46.5 q0 6 1 10q2 4 2 10q4 25 11 49t19 46q17 32 42.5 59t56 46.5t65 31t72.5 11.5q34 2 66 -9.5t59 -31.5t46 -48t29 -61q8 -22 9 -45.5t-1 -47.5q-1 -6 -1.5 -11t-1.5 -10q-7 -55 -13 -110t-14 -109q-6 -53 -31.5 -100.5t-64.5 -83.5t-88.5 -57.5t-103.5 -21.5q-26 0 -51 5.5 t-48 16.5t-43 27q-20 18 -34 38zM105 468q-4 -34 4.5 -69t32.5 -61q22 -26 53 -40t64 -14q38 -1 72 13.5t61 40.5q28 26 46 59t22 70q0 6 1 10.5t1 10.5q6 34 -4.5 67.5t-32 59.5t-52.5 41.5t-67 13.5q-28 0 -54 -8t-49 -23t-41 -35q-20 -20 -32 -44q-18 -34 -22 -72 q0 -6 -1.5 -10t-1.5 -10z" />
<glyph unicode=":" horiz-adv-x="315" d="M96 0q1 27 2 53.5t2 53.5h105l-4 -107h-105zM112 440l4 107h104l-2 -54t-2 -53h-104z" />
<glyph unicode=";" horiz-adv-x="297" d="M26 -70q22 52 43 104t44 104h105q-32 -52 -63.5 -104t-63.5 -104h-65zM130 440l6 108h104l-6 -108h-52h-52z" />
<glyph unicode="&#x3c;" horiz-adv-x="638" d="M52 294q3 15 5.5 30.5t4.5 29.5q142 65 284 127.5t285 126.5l-12 -68q-120 -54 -239 -107.5t-239 -108.5q102 -54 202 -107q99 -53 201 -105q-4 -18 -6 -36t-6 -36q-120 64 -240 127t-240 127z" />
<glyph unicode="=" horiz-adv-x="578" d="M14 170l26 68h459q-6 -18 -12 -34.5t-13 -33.5h-460zM78 345q6 18 12 34.5t12 33.5h459l-25 -69q-116 0 -229 0.5t-229 0.5z" />
<glyph unicode="&#x3e;" horiz-adv-x="636" d="M5 38q4 18 6.5 36t6.5 36q120 54 238 107q120 53 240 105q-101 54 -201 108t-202 108l12 68q121 -63 240 -126.5t240 -127.5q-2 -15 -5 -30q-4 -14 -6 -30q-144 -64 -285 -126t-284 -128z" />
<glyph unicode="?" horiz-adv-x="521" d="M100 682l2 4q15 20 33.5 35t40.5 27t46 18t50 6h24q18 0 36.5 -4t35.5 -10q32 -14 56 -41q12 -13 21 -28.5t15 -31.5q11 -35 8 -73q-2 -32 -15 -62t-35 -54q-21 -22 -42.5 -43t-44.5 -39q-16 -12 -29 -28t-23 -33q-14 -22 -21.5 -47.5t-9.5 -51.5q-1 -12 -2 -23 q0 -11 -2 -23h-66q2 12 3 24q1 10 3 22q2 21 6 41.5t11 39.5q11 32 31 60q9 12 18.5 23t21.5 21q8 8 17 15.5t19 15.5q18 15 35 32t31 36q13 16 21.5 35t9.5 39q2 24 -4.5 47.5t-24.5 40.5q-16 18 -39 27t-47 9h-24q-38 0 -70 -19q-16 -9 -29 -21t-23 -28q0 -2 -2 -6zM162 0 l4 52q4 25 6 51q16 0 32 -0.5t32 -0.5l-10 -102h-64z" />
<glyph unicode="@" horiz-adv-x="939" d="M72 312.5q0 41.5 8 81.5q16 86 60 162t110 132q32 28 69 49t76 36t81 23t84 8q34 0 68 -6t66 -18t60 -32t50 -46t37 -56t22 -63t7 -67t-6 -67q-10 -51 -28 -100t-48 -91q-12 -18 -27.5 -34.5t-34 -28.5t-39.5 -18.5t-43 -6.5q-15 0 -29.5 6t-26.5 15t-20 22t-9 29 q-28 -32 -68.5 -48.5t-83.5 -15.5q-18 0 -37 3.5t-36.5 12t-33 21.5t-27.5 31q-18 31 -20 66q-3 35 3 69q9 47 32.5 90t57.5 75q34 30 77 48t89 18q21 0 41 -4q21 -4 39 -14q17 -9 29 -24q13 -14 21 -30q5 16 9.5 32t10.5 32h64q-20 -68 -40.5 -136t-40.5 -137l-10 -30 t-11 -29q-3 -9 0 -17t9.5 -13.5t15 -7.5t16.5 -2q14 2 25 8.5t20.5 16t17.5 20t16 20.5q22 35 36 73t22 79q5 27 4.5 55t-6.5 55t-18 52t-30 47q-19 22 -43.5 37.5t-51.5 25.5t-56 14.5t-57 4.5q-71 0 -137.5 -26.5t-118.5 -73.5q-56 -48 -93 -112t-49 -136q-8 -44 -6 -87 t18 -85q14 -38 39 -70.5t59 -54.5q20 -13 42 -21.5t45.5 -13.5t47.5 -7q23 -2 47 -2q35 1 69.5 8.5t67.5 18.5l3 1q4 -16 8 -31q4 -16 6 -32l-4 -1q-39 -13 -79.5 -20t-81.5 -7q-42 0 -84 7t-81 23q-34 14 -63 36t-52.5 49t-40 60t-24.5 68q-10 40 -10 81.5zM319 331 q5 -26 18 -46.5t35 -33.5t50 -11q33 1 63 15.5t54 36.5q26 24 44 56q8 16 15 33t10 35q4 24 1 50t-19 46q-8 10 -18 17t-21.5 11.5t-24 6t-24.5 1.5q-32 1 -62 -12q-30 -12 -54 -34q-26 -24 -42 -55t-23 -66q-7 -24 -2 -50z" />
<glyph unicode="A" horiz-adv-x="526" d="M-43 0q81 191 161 380q78 190 160 380h66q32 -191 63 -380q31 -190 64 -380h-65q-6 40 -12.5 80t-12.5 80v1q-74 0 -146.5 0.5t-146.5 0.5q-16 -40 -33 -80q-17 -42 -33 -82h-65zM111 212h129.5h129.5q-19 110 -36.5 218t-37.5 217q-47 -110 -93 -217.5t-92 -217.5z" />
<glyph unicode="B" horiz-adv-x="579" d="M30 0q23 191 45.5 379.5t44.5 379.5h268h5q36 0 69 -14q36 -15 62 -43q14 -14 23 -31t14 -36t6 -39q1 -18 -1 -38q-4 -26 -13 -52q-9 -24 -25 -46q-16 -21 -35 -39.5t-42 -32.5l-1 -1l1 -1q19 -15 34 -34t25 -41q12 -24 15.5 -49.5t0.5 -51.5q-2 -22 -8.5 -41.5 t-16.5 -38.5q-19 -37 -51 -67q-16 -14 -34 -25.5t-38 -20.5q-19 -8 -39.5 -12.5t-40.5 -4.5h-268zM98 62h207q30 0 57.5 11.5t48.5 31.5q22 20 37 47.5t18 57.5q4 28 -4 55t-26 49q-18 21 -43 32.5t-53 9.5h-104h-104q-8 -74 -17 -147t-17 -147zM140 418h208q29 0 55.5 10.5 t48.5 29.5t37 44.5t17 55.5q4 27 -3 54t-27 47q-18 20 -43 29.5t-51 9.5h-104h-105z" />
<glyph unicode="C" horiz-adv-x="565" d="M28 202q-2 26 2 52l28 250q3 28 11.5 54t21.5 50t29.5 45.5t36.5 39.5t42 32.5t47 24.5t51.5 15t52.5 5q30 0 60 -7q32 -7 58 -23q48 -32 78 -82q-12 -12 -24 -22q-12 -8 -24 -20q-12 20 -27 38t-35 30q-21 13 -44.5 19t-47.5 6q-42 0 -81 -15.5t-69 -43.5 q-32 -28 -52 -66t-24 -80l-28 -250q-2 -13 -2 -27q0 -25 6 -51q10 -38 37 -68q12 -15 27.5 -26.5t33 -19.5t36.5 -12q19 -2 38 -2q26 0 52 6t48 19q24 12 43 29.5t35 37.5l40 -42q-20 -26 -46 -46t-54 -36q-29 -16 -60.5 -23t-64.5 -7q-26 0 -50.5 5t-48.5 15q-22 10 -41 25 t-35 33q-16 19 -27 40.5t-19 45.5q-8 26 -10 52z" />
<glyph unicode="D" horiz-adv-x="607" d="M30 0q23 190 45 379q23 189 45 379h211q26 0 50.5 -5t48.5 -16q21 -10 39.5 -24.5t34.5 -32.5t27 -40t18 -45q8 -26 10 -52q1 -27 -1 -53q-7 -56 -13.5 -112t-12.5 -112q-3 -27 -11.5 -53t-21.5 -50t-29.5 -45t-36.5 -39t-42.5 -32.5t-46.5 -25.5q-25 -10 -51.5 -15.5 t-52.5 -5.5h-210zM98 62h150q20 0 40 4t39 12q39 16 69 44q15 14 27.5 30t22.5 34t17 38.5t9 41.5q7 56 13 112t13 112q2 20 1 41t-7 40q-6 18 -14.5 34.5t-20.5 31.5q-12 14 -26.5 25.5t-32.5 18.5q-18 8 -37 11.5t-37 4.5q-38 0 -76 0.5t-76 0.5z" />
<glyph unicode="E" horiz-adv-x="608" d="M30 0q23 190 45 379q23 189 45 379h472q-2 -16 -4 -31t-4 -31l-412 2q-8 -70 -16 -139t-16 -139h173.5h172.5q-4 -16 -9 -31t-9 -31h-336q-9 -74 -17.5 -148t-16.5 -148h412q-2 -16 -4 -31t-4 -31h-472z" />
<glyph unicode="F" horiz-adv-x="599" d="M32 0q23 190 45 379q23 189 45 379h468q-2 -16 -4 -31q0 -15 -2 -31l-410 2q-8 -72 -17 -142t-17 -142h172.5t172.5 -1q-4 -16 -9 -31q-4 -14 -8 -30h-167.5h-167.5q-10 -88 -20.5 -176t-21.5 -176h-59z" />
<glyph unicode="G" horiz-adv-x="620" d="M27 205.5q-1 26.5 2 52.5l31 242q4 28 12 54q9 28 23 52q13 24 30 45.5t38 40.5q20 18 43.5 32.5t48.5 25.5q26 10 53 16q26 4 52 4t52 -5q24 -5 48 -15q22 -10 41.5 -25.5t35.5 -34.5t27.5 -40.5t17.5 -45.5q7 -26 9.5 -52t-1.5 -52h-62q2 20 1 40t-5.5 39t-13 36.5 t-22.5 32.5q-24 32 -60 47q-34 14 -70 14h-5.5h-4.5q-40 0 -78 -15q-40 -18 -71 -46q-32 -28 -52.5 -66.5t-26.5 -81.5l-31 -242q-2 -15 -2 -29q0 -25 6 -49q10 -40 36 -70q24 -31 61 -48q32 -14 67 -14h9h5q39 0 77 15q40 16 71 46q32 29 52.5 67t24.5 82q1 12 3.5 24 t3.5 24h-201q2 16 4 31t4 31h264l-8 -56q-2 -26 -6 -54q-8 -56 -34 -105q-28 -50 -69 -87q-42 -37 -93 -59q-26 -10 -52 -15q-26 -6 -54 -6q-26 0 -51 5t-49 16q-44 21 -76 59q-16 19 -27 41t-19 46q-8 26 -9 52.5z" />
<glyph unicode="H" horiz-adv-x="684" d="M26 0q25 190 50 378q26 189 50 380h60q-11 -86 -22.5 -170t-22.5 -170h407l45 340h61l-100 -758h-61q12 90 23.5 178t23.5 178h-408l-46 -356h-60z" />
<glyph unicode="I" horiz-adv-x="214" d="M71 0q2 190 5.5 379t5.5 379h61q-3 -190 -6.5 -379t-4.5 -379h-61z" />
<glyph unicode="J" horiz-adv-x="367" d="M-12 28q12 10 22 21t22 21l12 -7l6 -3q6 -4 12.5 -6t13.5 -4h3h3q4 -1 7.5 -2t7.5 -1q23 0 44 8.5t38 24.5t27 36q10 22 12 44q10 150 20 298q10 150 21 300h59q-10 -150 -20 -299t-20 -299q-2 -35 -17.5 -67.5t-41.5 -56.5q-26 -25 -59 -38q-32 -12 -68 -12 q-30 -1 -56.5 10t-47.5 32z" />
<glyph unicode="K" horiz-adv-x="611" d="M26 0q26 190 50 379t48 379h60q-12 -92 -23 -182q-11 -88 -23 -180q96 92 193 181t193 181h82q-100 -96 -201 -189t-201 -189q86 -96 170 -190t170 -190h-86q-80 92 -161 181t-162 181l-2 2q-12 -92 -23.5 -182t-23.5 -182h-60z" />
<glyph unicode="L" horiz-adv-x="562" d="M28 0q23 190 45.5 379t44.5 379h60q-20 -175 -40 -348q-22 -173 -42 -348h411q-2 -16 -3.5 -31t-3.5 -31h-472z" />
<glyph unicode="M" horiz-adv-x="740" d="M20 0q28 190 56 379t56 379h68q44 -91 86 -181.5t86 -182.5v-2q72 92 142 183t142 183h66l-112 -758h-60l98 655q-62 -80 -123 -159.5t-123 -159.5h-36.5h-36.5q-38 79 -74.5 158.5t-74.5 157.5l-2 4q-24 -166 -48.5 -328.5t-49.5 -327.5h-60z" />
<glyph unicode="N" horiz-adv-x="679" d="M25 0q25 190 50 378.5t50 379.5h67q80 -162 157 -324t157 -324l1 -4l87 652h60l-100 -758h-67q-78 164 -156.5 325t-156.5 325l-2 4q-22 -164 -44 -327q-20 -163 -42 -327h-61z" />
<glyph unicode="O" horiz-adv-x="587" d="M28 189q-2 25 2 50l34 277q4 26 11 51t20 47q12 22 27.5 42.5t34.5 37.5q18 18 39 30q22 14 45 24q48 20 99 20q24 0 47 -5t45 -16q40 -20 70 -54q15 -18 26 -38q10 -21 17 -43q8 -24 9.5 -48t-0.5 -49q-8 -70 -16 -138.5t-17 -138.5q-2 -26 -10.5 -50.5t-20.5 -47.5 q-24 -44 -63 -80q-19 -17 -40 -30.5t-45 -23.5q-23 -10 -48 -16q-24 -4 -49 -4q-24 0 -48 4q-24 6 -46 16q-20 10 -37.5 23t-32.5 31t-25 38t-18 42q-8 24 -10 49zM90 239q-2 -14 -2 -27q0 -22 6 -44q10 -36 34 -64q22 -28 56 -43q30 -13 61 -13h8q38 0 74.5 14t64.5 41 q29 26 47 61t22 74q8 70 16.5 139t16.5 138q1 12 1 23q1 24 -5 48q-8 36 -33 64q-21 28 -55 43q-30 13 -62 13h-8h-5q-35 0 -69 -14q-36 -15 -64 -41q-29 -26 -48 -60.5t-23 -74.5q-8 -70 -16.5 -138.5t-16.5 -138.5z" />
<glyph unicode="P" horiz-adv-x="643" d="M25 0q25 190 50 378.5t50 379.5h321q20 0 39 -3.5t37 -11t33.5 -18.5t28.5 -27q28 -30 38 -69q6 -24 6 -49q0 -15 -2 -30q-6 -44 -28 -84q-11 -19 -24 -36q-14 -18 -30 -32q-32 -28 -72 -45q-20 -8 -41 -12.5t-43 -4.5h-130h-128q-12 -84 -23 -168l-22 -168h-60zM138 398 h259q31 0 59.5 11.5t50.5 32.5q24 21 39 49q16 27 20 59q4 28 -3 57t-27 49q-18 21 -44 32q-26 10 -54 9q-66 0 -130 1h-130q-10 -76 -20 -150t-20 -150z" />
<glyph unicode="Q" horiz-adv-x="579" d="M25 212l2 26q10 70 18.5 140t18.5 141q3 26 11.5 50.5t21.5 47.5q23 44 61 80q19 18 42 31q22 14 45 24q24 9 48 14q23 4 49 4q24 0 48 -5t46 -14q19 -11 36.5 -24.5t31.5 -30.5q15 -18 25.5 -38t16.5 -43q8 -24 9 -48.5t-1 -48.5l-36 -280q-3 -26 -11.5 -51.5 t-22.5 -48.5q-4 -10 -10 -19t-12 -17l-1 -1q16 -20 33 -38.5t34 -38.5q-10 -10 -20 -18l-20 -16q-16 18 -32 37t-32 37v-3v-1h-2q-19 -16 -39.5 -30.5t-44.5 -25.5q-24 -9 -48 -14t-50 -5q-24 0 -47 4.5t-45 14.5q-20 10 -38 24t-33 32q-7 8 -13 17t-12 19q-4 10 -8 21 t-8 21q-4 12 -6.5 24t-3.5 24q-2 13 -1 26zM87 238q-2 -13 -2 -26q0 -23 6 -46q9 -35 33 -63q23 -27 56 -42q30 -14 64 -14h4q39 0 75.5 14.5t64.5 40.5l2 2q-20 23 -39.5 45.5t-39.5 45.5q10 9 20.5 18t20.5 19q18 -22 36 -43l36 -42v-1l1 2q14 20 22 43q9 23 11 47l36 280 q2 14 2 29q0 21 -4 43q-8 36 -32 64q-22 29 -56 42q-32 13 -65 13h-5h-5q-36 0 -69 -14q-36 -15 -65 -41q-30 -26 -48.5 -61t-23.5 -74q-10 -70 -18.5 -140.5t-17.5 -140.5z" />
<glyph unicode="R" horiz-adv-x="645" d="M25 0q25 190 50 378.5t50 379.5h321q20 0 39 -3.5t37 -11t33.5 -18.5t28.5 -26q28 -29 38 -69q6 -25 6 -50q0 -15 -2 -30q-3 -20 -8.5 -39t-15.5 -37t-21 -34t-26 -30q-14 -14 -30.5 -26t-33.5 -22q-18 -10 -37 -16q-18 -6 -38 -8h-2q30 -86 60.5 -169t60.5 -169h-66 l-60 168q-29 84 -61 168q-54 0 -109 0.5t-109 0.5l-45 -337h-60zM138 398h259q31 0 60 12t51 33q24 21 39 49q15 26 19 58q4 28 -3 56t-27 50q-18 21 -44 32q-26 10 -54 9q-66 0 -130 1h-130q-10 -76 -20 -150t-20 -150z" />
<glyph unicode="S" horiz-adv-x="548" d="M-1 188q16 2 30.5 6t30.5 6q-3 -30 9 -56q13 -27 35 -46q26 -24 59 -34q28 -9 56 -8h11q37 0 72.5 10t65.5 32q26 18 45.5 45t22.5 59q2 24 -5.5 43t-21 33.5t-32 26t-39 20t-40.5 14.5q-22 6 -40 11q-25 5 -51.5 13.5t-51.5 22t-46 31t-36 38.5t-22 47t-3 57q2 21 10 41 t20 38q12 20 27 36q15 18 33 32q19 14 39.5 25t43.5 18q24 8 48 11.5t49 3.5q23 0 45.5 -3t44.5 -11q20 -7 37 -17.5t32 -25.5q31 -27 45 -63q8 -18 12 -37t2 -38l-61 -11q2 14 -0.5 29t-7.5 28t-14 25t-19 20q-25 23 -57.5 33.5t-66.5 10.5q-36 0 -71 -10.5t-65 -32.5 q-26 -18 -44 -44.5t-22 -57.5q-3 -36 13 -61.5t42.5 -42.5t57.5 -28t59 -18q16 -5 31 -9t31 -9q20 -6 38.5 -15.5t36.5 -21.5t33.5 -27t27.5 -33q14 -20 17 -44t1 -48q-2 -22 -10 -42t-20 -38q-12 -20 -27.5 -37t-33.5 -31q-39 -30 -85 -44q-48 -16 -98 -16q-24 0 -46 3 q-24 3 -46 11q-20 7 -38 18q-18 10 -34 24q-15 13 -26.5 29.5t-19.5 34.5q-13 30 -13 62v12z" />
<glyph unicode="T" horiz-adv-x="519" d="M52 698l8 60h491l-8 -62q-54 0 -107.5 0.5t-107.5 0.5l-88 -697h-60q22 176 43 349t44 348q-54 0 -107.5 0.5t-107.5 0.5z" />
<glyph unicode="U" horiz-adv-x="646" d="M57.5 189q-1.5 25 1.5 50q16 130 31 259l32 260h60q-16 -130 -31 -259t-31 -260q-2 -18 -1 -37t6 -37q6 -16 13.5 -32t18.5 -29t24 -24t29 -18q16 -8 34 -11t36 -3h5q36 0 69 14q36 16 65 42q30 26 48.5 61t22.5 73q16 130 31 260t31 260h60q-16 -130 -31 -260t-31 -260 q-4 -26 -11 -50.5t-21 -47.5q-26 -46 -62 -80q-38 -34 -84 -54q-24 -10 -49 -16q-25 -4 -51 -4q-24 0 -48 5q-22 5 -44 15q-20 10 -38 24t-32 30q-14 18 -25 38t-18 42q-8 24 -9.5 49z" />
<glyph unicode="V" horiz-adv-x="545" d="M64 758h64q28 -160 54 -320q24 -160 52 -320l2 -4q70 162 137.5 322t135.5 322h63q-80 -190 -159 -379.5t-160 -378.5h-65q-31 190 -60.5 379t-63.5 379z" />
<glyph unicode="W" horiz-adv-x="812" d="M88 758h64q18 -160 32 -318q14 -160 30 -320v-4q43 88 86.5 176t87.5 177q16 0 32 -0.5t33 -0.5q8 -88 16 -174q9 -86 17 -174v-4q79 161 156.5 320.5t156.5 321.5h64q-94 -190 -186.5 -379t-186.5 -379h-56q-8 90 -17 180l-18 180l-1 3q-46 -92 -90 -181.5t-89 -181.5 h-55q-18 191 -36.5 379.5t-39.5 378.5z" />
<glyph unicode="X" horiz-adv-x="625" d="M-44 0q80 95 158 189q78 95 159 189h1q-51 96 -101.5 191t-103.5 189h75q46 -81 88.5 -162t86.5 -163l1 -2q70 82 138 163l136 164h71q-80 -95 -158.5 -189.5t-158.5 -190.5q52 -95 103 -189t102 -189h-72q-44 82 -87.5 162t-88.5 162l-1 1q-70 -81 -138 -162t-136 -163 h-74z" />
<glyph unicode="Y" horiz-adv-x="619" d="M66 758h74q46 -82 89 -164t87 -164v-1q70 82 137 164.5t135 164.5h74q-82 -98 -162 -196t-162 -196h-1q-14 -92 -28 -183q-15 -91 -29 -183h-60q14 92 28 183t28 183q-52 99 -104 196.5t-106 195.5z" />
<glyph unicode="Z" horiz-adv-x="606" d="M-34 0l4 24l4 24q142 162 285.5 323t286.5 323l2 2l-456 2l4 30l4 30h540q-1 -12 -4 -24q-2 -14 -2 -26q-142 -162 -286 -323q-146 -161 -288 -323l-1 -2h458l-9 -60h-542z" />
<glyph unicode="[" horiz-adv-x="387" d="M96 -296l22 608q10 306 22 610h220l-2 -67q-38 0 -76 0.5t-76 0.5l-20 -542q-8 -270 -18 -541h153l-3 -69h-222z" />
<glyph unicode="\" horiz-adv-x="570" d="M120 792h74q48 -198 94 -396t94 -396h-72q-48 198 -95 396t-95 396z" />
<glyph unicode="]" horiz-adv-x="384" d="M20 -296l3 69h153q10 270 19 541q9 272 19 542h-76h-76l2 66h220q-10 -304 -20 -609t-22 -609h-222z" />
<glyph unicode="^" horiz-adv-x="741" d="M6 184q99 151 196.5 300.5t197.5 299.5h58q40 -151 80 -300q38 -150 80 -300h-69q-35 130 -69 258t-68 258q-86 -129 -170 -257.5t-169 -258.5h-67z" />
<glyph unicode="_" horiz-adv-x="886" d="M-73 -211q42 19 82.5 38t82.5 39h865l-163 -77h-867z" />
<glyph unicode="`" horiz-adv-x="442" d="M94 870q15 14 30.5 28t29.5 29q49 -61 96.5 -122t96.5 -123l-61 -53q-48 60 -96 119.5t-96 121.5z" />
<glyph unicode="a" horiz-adv-x="553" d="M38 234q4 23 7 45.5t7 45.5q4 26 12 50.5t20 46.5t27 42t33 37q18 16 38 29.5t41 23.5q22 9 44.5 14t46.5 5h4q40 0 77 -17q18 -8 33 -20q16 -14 30 -28l8 -8q2 16 4.5 31t4.5 31h63q-20 -141 -41 -281t-41 -281h-64l9 58l-11 -8q-18 -14 -37 -26q-19 -14 -40 -22 q-21 -10 -43 -13.5t-44 -3.5t-44 5q-20 4 -40 14q-18 10 -34 24t-29 30q-13 18 -22 38t-15 40q-7 29 -7 58q0 20 3 40zM100 234q-2 -15 -2 -30q0 -19 4 -38q6 -34 27 -62q18 -26 46.5 -40.5t59.5 -13.5q36 0 67.5 15t56.5 39q27 26 45 59t22 71q4 23 7 45t7 45q3 16 3 31 q0 18 -4 37q-7 34 -28 62q-18 26 -47 41q-28 15 -60 13h-5q-33 0 -61 -14q-32 -14 -57 -38q-27 -26 -44 -60t-23 -71q-4 -23 -7 -46t-7 -45z" />
<glyph unicode="b" horiz-adv-x="575" d="M26 -6q21 199 42.5 397.5t41.5 398.5h64q-8 -74 -16 -146t-16 -146q2 2 6 4q4 3 6 6q30 32 72 50q39 17 81 17h5q44 0 83.5 -20t66.5 -54q14 -18 24 -37.5t17 -41.5q6 -24 8.5 -48t-0.5 -48q-2 -22 -4.5 -44t-4.5 -45q-2 -26 -10 -50.5t-19 -47.5q-12 -22 -26 -42 q-13 -19 -31 -37q-34 -33 -77 -53.5t-91 -20.5h-4q-40 0 -75 18q-37 18 -65 49q-2 2 -4 4.5t-4 5.5q-2 -18 -4 -35q-2 -16 -4 -34h-62zM114 238q-1 -11 -1 -23q0 -23 5 -46q8 -35 30 -63q18 -26 47 -41t61 -14q34 0 66 15t55 40q26 26 42 60t19 71l10 89q1 11 1 23 q0 23 -5 45q-8 34 -30 62q-18 26 -48 40q-28 14 -60 14h-4q-32 0 -62 -14q-32 -15 -55 -40q-26 -26 -41.5 -60t-19.5 -70q-3 -22 -5 -44q-3 -22 -5 -44z" />
<glyph unicode="c" horiz-adv-x="482" d="M35 185q-2 25 2 49q3 23 7 46q4 22 6 46q3 26 10.5 50t20.5 46q12 22 26 42t32 37q18 16 37.5 29.5t41.5 23.5q22 9 44 14.5t46 4.5q26 0 51 -6.5t47 -20.5q42 -26 66 -70q-13 -12 -25.5 -23t-25.5 -23q-8 16 -19.5 30t-25.5 24q-16 12 -36 18.5t-40 6.5 q-34 0 -66.5 -14.5t-56.5 -39.5q-27 -26 -43 -59.5t-22 -69.5l-12 -92q-1 -12 -1 -25q0 -22 4 -43q7 -34 27 -62q18 -26 47 -40.5t61 -13.5q22 0 43 6t41 18q18 11 33 25t27 31q10 -12 20 -23.5t20 -23.5q-18 -22 -39.5 -39.5t-46.5 -31.5q-24 -14 -51.5 -20.5t-55.5 -6.5 q-22 0 -43.5 4.5t-41.5 15.5q-38 19 -63 53q-13 18 -23 38t-15 40q-6 24 -8 49z" />
<glyph unicode="d" horiz-adv-x="558" d="M28 235q2 23 5 45.5t5 45.5q6 50 28 96t58 80q33 33 76 53t90 20q42 0 79 -17.5t66 -47.5l9 -10q8 73 15 144.5t15 145.5h62q-20 -199 -41 -398.5t-43 -397.5h-63l7 66l-4 -4q-4 -2 -6 -5q-34 -28 -74 -47q-40 -18 -86 -18q-22 0 -43 5t-41 14.5t-36 22.5q-16 14 -30 32 q-30 36 -41 82q-8 33 -8 68q0 12 1 25zM91 235q-1 -10 -1 -21q0 -24 6 -47q8 -33 28 -61q18 -26 47 -41t61 -14q34 0 66 14.5t56 39.5q26 26 42 59.5t19 69.5l10 92q1 11 1 22q0 23 -6 46q-8 34 -29 62q-18 26 -47.5 40.5t-61.5 13.5q-34 0 -65 -14.5t-55 -39.5 q-26 -26 -42 -60t-19 -70z" />
<glyph unicode="e" horiz-adv-x="538" d="M36 166q-2 15 -2 30q0 19 3 38q4 24 7 46q4 22 7 46q7 48 30 92.5t58 79t79 55.5t94 21q31 1 59 -8.5t50.5 -27t40.5 -41t28 -51.5t13 -57t-2 -58l-11 -71h-192.5h-193.5q0 -7 -1 -13.5t-3 -12.5q-3 -15 -3 -30q0 -17 4 -35q7 -33 25 -60t46 -44q23 -15 55 -15h7 q22 0 43 6t40 17t35 25t28 32l39 -47q-18 -22 -40 -39.5t-46.5 -30.5t-52.5 -21q-28 -7 -56 -7q-22 0 -43 4.5t-41 14.5q-30 16 -52 42t-35 56t-17 64zM114 326h162t161 -1v1l1 5q6 31 -2 63t-26 58t-46 42q-26 16 -57 16h-4q-36 -1 -67.5 -16t-56.5 -39.5t-42 -56.5 t-21 -66l-1 -2z" />
<glyph unicode="f" horiz-adv-x="374" d="M25 512l5 64h44h45l7 87q2 29 16 55.5t35 46.5t48 32t57 12q16 0 31 -4.5t29 -12t26 -18t22 -22.5l-49 -48q-8 18 -26.5 29.5t-38.5 10.5q-16 0 -31 -6.5t-27 -18t-20 -25.5q-6 -14 -8 -31l-8 -87q36 0 71 -0.5t70 -0.5q-2 -16 -2.5 -32.5t-2.5 -32.5q-36 0 -71 1t-70 1 q-11 -128 -21 -256t-22 -256h-62q11 128 20 256q10 128 22 256h-44h-45z" />
<glyph unicode="g" horiz-adv-x="565" d="M42 -222q13 12 25 24q13 12 25 24q22 -22 51 -32t59 -10h5q37 0 72 15q37 16 65 43q30 27 49 62.5t22 75.5l7 79q-3 -2 -5.5 -4t-4.5 -4q-33 -28 -74 -47q-42 -18 -86 -18q-22 0 -43 4.5t-41 14t-37 22.5t-31 31q-30 37 -41 84q-7 30 -7 60q0 16 2 33l4 46t5 46 q4 49 25.5 94.5t57.5 79.5q34 32 76 53q42 20 90 20h4q40 0 76 -17q39 -19 65 -51l9 -10q1 18 3.5 35t3.5 35h63q-14 -147 -29 -292.5t-29 -293.5q-6 -53 -30.5 -100t-63.5 -83q-38 -36 -87 -57q-49 -20 -102 -20h-5q-39 0 -76 14q-40 16 -72 44zM116 235q-1 -11 -1 -23 q0 -22 5 -46q8 -34 30 -61q19 -26 48.5 -40.5t61.5 -13.5q34 0 65 14.5t55 38.5q26 26 41 60t19 70l10 92q1 10 1 21q0 23 -6 47q-9 34 -30 61q-19 26 -48 40.5t-61 13.5h-4q-32 0 -61 -14q-31 -15 -55 -39q-26 -26 -41 -59.5t-19 -69.5l-4 -46q-4 -23 -6 -46z" />
<glyph unicode="h" horiz-adv-x="558" d="M24 0l82 794h62q-8 -72 -15 -143l-14 -142q2 2 5 4q4 3 6 5q30 27 68 42q36 14 75 14h5q21 0 41.5 -4t39.5 -12t36 -20.5t31 -28.5q28 -32 40 -73q8 -29 8 -58q0 -13 -2 -25q-10 -88 -18 -176.5t-18 -176.5h-64q10 88 19 176t18 177q3 30 -5 59q-8 28 -28 51 q-19 22 -46.5 34.5t-57.5 12.5q-32 1 -61 -12.5t-51 -34.5q-24 -21 -39 -49t-18 -60l-37 -354h-62z" />
<glyph unicode="i" horiz-adv-x="229" d="M77 0l9 562l63 -1l-9 -561h-63zM87 668q1 26 1 51t1 50h63q0 -26 -0.5 -51.5t-1.5 -51.5z" />
<glyph unicode="j" horiz-adv-x="193" d="M-151 -228q11 12 22 22t23 22q8 -18 27 -28t39 -8q17 0 32 6t26.5 17t18.5 26.5t7 32.5q8 176 16 349.5t16 349.5q16 0 32 -0.5t32 -0.5q-8 -176 -16 -349t-16 -349q-1 -30 -13 -58q-11 -28 -33 -48q-21 -20 -48 -32q-28 -10 -58 -10q-33 -2 -61.5 14t-45.5 44zM82 666 l2 52q0 24 2 50h63q-2 -26 -3 -51t-2 -51h-31h-31z" />
<glyph unicode="k" horiz-adv-x="529" d="M22 0l86 806h62q-22 -202 -43 -403t-43 -403h-62zM128 276q78 72 157 142q79 72 157 144q22 0 44 -0.5t44 -0.5q-78 -72 -156 -142.5t-156 -142.5q64 -70 127 -138t125 -138h-88q-64 70 -127.5 138t-126.5 138z" />
<glyph unicode="l" horiz-adv-x="187" d="M56 0l12 809h64l-12 -809h-64z" />
<glyph unicode="m" horiz-adv-x="875" d="M-2 0q35 142 69 283q35 141 69 283h64q-2 -12 -6 -24t-6 -25q3 2 5.5 4t4.5 4q32 21 67 35t73 14q22 0 44.5 -5.5t41.5 -17t34 -27.5t23 -38l3 -8l7 8q36 40 84.5 64t102.5 24q26 2 50 -6t43 -23t33 -35t22 -43.5t8 -48.5q2 -25 -6 -49q-22 -93 -45 -184.5t-45 -184.5 h-64q24 93 45.5 184.5t44.5 184.5q8 24 4 50t-19 46.5t-37 33.5t-50 11q-30 0 -58 -12t-51 -31t-40 -44t-24 -54q-24 -93 -46.5 -184.5t-46.5 -184.5h-63q24 93 46.5 184.5t46.5 185.5q9 25 4.5 50.5t-19.5 46.5t-38 33t-50 10q-30 -1 -57.5 -12.5t-50.5 -30.5t-40 -44 t-23 -53q-23 -93 -45.5 -185t-46.5 -185h-62z" />
<glyph unicode="n" horiz-adv-x="562" d="M24 0l80 565h64l-4 -28q-2 -15 -4 -29l10 8q32 27 72 42t82 15q40 0 78 -16.5t64 -48.5q28 -32 37 -74q5 -25 5 -50q0 -17 -2 -34q-12 -88 -25 -175t-25 -175h-64q13 88 25.5 175t24.5 175q5 30 -1.5 60t-26.5 52q-18 22 -44 35q-28 13 -56 11q-32 1 -62 -11.5t-54 -34.5 q-26 -21 -41 -49.5t-20 -61.5q-12 -88 -24.5 -175.5t-26.5 -175.5h-62z" />
<glyph unicode="o" horiz-adv-x="577" d="M33.5 187.5q-0.5 23.5 3.5 46.5t7.5 46t7.5 46q8 52 33 98q25 44 65 78q38 34 85.5 53t98.5 19q22 0 45 -4t43.5 -13.5t39 -23t32.5 -31.5q30 -38 40 -84q6 -26 6 -51q0 -21 -4 -41q-3 -23 -7.5 -46t-7.5 -46q-7 -52 -32.5 -97t-64.5 -79q-38 -34 -86 -54 q-44 -18 -90 -18h-9q-22 0 -44.5 4t-43.5 13t-39 23t-32 32q-15 18 -25 39t-15.5 44t-6 46.5zM100 234q-3 -15 -2 -29q0 -19 4 -39q8 -34 30 -62q20 -28 52 -41t66 -13q38 0 73 14t63 40q28 25 47 58.5t25 71.5l8 46q2 22 6 46q3 16 3 31q0 18 -4 37q-7 34 -30 61 q-21 27 -52 41t-65 14q-38 0 -73 -14.5t-63 -39.5q-29 -25 -48.5 -58.5t-25.5 -71.5z" />
<glyph unicode="p" horiz-adv-x="557" d="M21 -231q22 200 43 398q21 199 42 399h64q-2 -18 -4 -35t-4 -35q3 2 6 5q4 3 6 6q32 32 73 49q39 17 80 17h5q22 0 43 -5t40.5 -14.5t36.5 -23t30 -30.5q15 -18 25 -39t16 -44t7.5 -46t-0.5 -47l-4 -46q-4 -22 -6 -44q-6 -50 -28 -96t-58 -82q-33 -33 -75.5 -51.5 t-90.5 -18.5h-5q-38 0 -74 16q-39 16 -65 48l-8 10q-7 -73 -15.5 -145.5t-16.5 -145.5h-63zM134 234q-1 -11 -1 -23q0 -23 5 -45q8 -35 30 -62q9 -13 21 -23.5t26 -17.5t29.5 -10t31.5 -3q34 0 66 14q30 15 54 40q26 26 41.5 60t19.5 70q2 23 4.5 45.5t4.5 44.5q1 12 1 24 q0 22 -5 45q-7 35 -28 62q-18 26 -48 40q-28 13 -60 13h-4q-32 0 -62 -14t-54 -38q-26 -26 -42 -60t-20 -70l-4 -46q-4 -23 -6 -46z" />
<glyph unicode="q" horiz-adv-x="563" d="M49.5 188q-1.5 24 2.5 46q2 23 4 46.5t5 45.5q6 50 27 95t57 80q16 16 35.5 29.5t41 23t44 15t46.5 5.5q41 0 79 -17.5t66 -47.5l9 -9l4 34q0 17 2 34h64q-21 -201 -42 -400q-20 -198 -42 -398h-64q8 73 16 144.5t14 144.5l-9 -9q-33 -28 -74 -46t-86 -18q-22 0 -43.5 5 t-40.5 14t-37 23q-16 14 -30 32q-15 18 -25.5 39t-16 43t-7 46zM114 234q-1 -11 -1 -23q0 -22 5 -45q8 -34 30 -62q18 -26 47 -40t61 -13q34 0 66 15q30 14 54 38q26 26 42 60t20 70q2 23 4.5 45.5t4.5 45.5q1 12 1 24q0 22 -4 45q-8 34 -30 62q-19 26 -48 40q-28 14 -60 13 h-4q-32 0 -62 -14q-30 -15 -54 -39q-26 -26 -42 -60t-20 -70l-4 -46q-4 -22 -6 -46z" />
<glyph unicode="r" horiz-adv-x="400" d="M32 0q16 142 31 284t29 284h64l-2 -24q-2 -14 -3 -26l10 8q27 22 61 35q31 12 65 12h5q32 0 62 -11t56 -32q-13 -12 -26 -23t-26 -23q-15 13 -34.5 18.5t-38.5 5.5q-28 1 -54 -10q-27 -10 -47 -29q-21 -19 -33.5 -44t-14.5 -53q-10 -94 -20 -186.5t-21 -185.5h-63z" />
<glyph unicode="s" horiz-adv-x="435" d="M0 132l62 12q-1 -19 8 -36q8 -16 23 -28q18 -15 40.5 -22.5t44.5 -7.5q26 0 50 8t45 22q18 12 32 30q15 18 17 40v9t-1 9q0 8 -4 15t-9 12q-8 8 -17 14.5t-19 12.5q-18 10 -37 16t-37 11q-30 6 -61 19.5t-56 33.5t-39 48q-10 20 -10 44q0 10 2 21q4 34 24 63q18 30 46 50 q30 24 66.5 36t74.5 12q34 0 67 -10q32 -10 58 -34q22 -19 34 -45.5t12 -55.5l-64 -10q1 18 -7.5 34.5t-22.5 28.5q-18 16 -40 22t-45 6q-24 0 -48 -7t-44 -21q-18 -12 -31.5 -29.5t-15.5 -39.5q-1 -24 10.5 -41.5t30.5 -29t40.5 -19t40.5 -13.5q19 -4 40 -11t40.5 -17.5 t36.5 -23.5t28.5 -29.5t17 -36.5t1.5 -44q-4 -35 -22.5 -65t-46.5 -51q-30 -25 -67 -37q-38 -11 -78 -11q-34 0 -67 10t-57 34q-22 20 -35 46t-11 56z" />
<glyph unicode="t" horiz-adv-x="375" d="M25 498l6 65q22 0 44.5 -0.5t44.5 -0.5l14 150h63l-13 -150h70h70l-6 -65q-36 0 -70 1h-70q-8 -92 -17 -183t-17 -183q-2 -16 2 -31t16 -27q10 -11 25 -17.5t29 -6.5q22 -1 42 10q18 12 30 30l42 -47q-22 -26 -54 -41q-32 -16 -66 -16q-28 0 -54 10t-44 32 q-19 21 -26.5 48.5t-5.5 55.5q8 92 17 183t17 183h-44h-45z" />
<glyph unicode="u" horiz-adv-x="562" d="M55 206q12 90 25 178q14 88 26 177h62q-13 -90 -25.5 -177.5t-24.5 -177.5q-4 -29 2 -58.5t26 -51.5q18 -23 45 -34.5t55 -11.5q32 0 62 12t54 34q25 21 39.5 49.5t19.5 60.5q12 90 25 178t26 177h66q-21 -144 -40.5 -285.5t-41.5 -285.5h-66q2 14 4 29t5 30 q-3 -2 -5.5 -4.5t-5.5 -4.5q-32 -28 -71 -42q-36 -14 -75 -13h-5q-20 -1 -40 3t-38.5 12.5t-34.5 21t-28 28.5q-28 32 -38 74q-6 24 -6 48q0 17 3 34z" />
<glyph unicode="v" horiz-adv-x="526" d="M59 561h67q26 -125 49 -248.5t49 -248.5q68 124 134 248t133 249h67q-148 -282 -298 -561h-91q-27 141 -54 280.5t-56 280.5z" />
<glyph unicode="w" horiz-adv-x="730" d="M80 561h68q16 -117 30 -233t28 -234q32 54 63 108q31 52 64 106h36h36q6 -54 12 -107t12 -107q72 118 142 234q69 116 141 233h68q-86 -140 -170 -279.5t-169 -279.5l-1 -2h-68q-6 55 -12 109.5t-12 110.5q-33 -54 -65.5 -109t-65.5 -109l-1 -2h-66q-16 142 -33 281 t-37 280z" />
<glyph unicode="x" horiz-adv-x="462" d="M-23 0q54 66 106 132q51 66 105 132l3 4q-34 74 -68.5 147t-70.5 146h76q28 -58 56 -117q26 -58 54 -116q46 58 90 116t89 117h73q-56 -73 -110 -145t-110 -146l-2 -2l133 -268h-74q-26 55 -52.5 109.5t-52.5 109.5q-44 -54 -86 -109l-84 -110h-75z" />
<glyph unicode="y" horiz-adv-x="472" d="M53 561h65q28 -122 55 -242t55 -242q53 122 103.5 242t102.5 242h67q-62 -148 -124 -293q-61 -146 -125 -292q-13 -30 -26.5 -60t-25.5 -60l-62 -144h-66q28 66 56 130t56 130l2 2q-34 148 -66 294t-67 293z" />
<glyph unicode="z" horiz-adv-x="568" d="M25 0q95 123 190 244.5t190 243.5l7 8q-80 0 -159 0.5t-159 0.5l4 32q4 16 6 31h430q-94 -123 -188.5 -243.5t-190.5 -242.5q-2 -2 -3.5 -4t-3.5 -5h318q-2 -16 -4 -32.5t-6 -32.5h-431z" />
<glyph unicode="{" horiz-adv-x="360" d="M56 312l37.5 37.5l38.5 38.5l8 246q1 40 8 79q8 39 22 75q13 36 30 69t39 63q12 -12 23.5 -24t23.5 -25q-18 -26 -32 -52.5t-23 -56.5q-10 -32 -15.5 -63.5t-5.5 -64.5l-10 -258q-16 -16 -30 -32t-29 -32l28 -28q13 -16 27 -30q-2 -66 -4 -131t-4 -131q-2 -65 14 -128 q15 -64 51 -118q-13 -12 -25.5 -23.5t-25.5 -23.5q-20 33 -36 67t-27 70q-12 38 -17 78q-6 38 -4 78l4 124l4 124q-18 18 -35 36t-35 36z" />
<glyph unicode="|" horiz-adv-x="688" d="M307 0l12 758h62l-12 -758h-62z" />
<glyph unicode="}" horiz-adv-x="360" d="M30 -252q38 54 58.5 117t22.5 129t4.5 131t4.5 131l58 56q-14 16 -27.5 33t-26.5 33l9 258q1 32 -2 64t-12 64q-8 29 -19.5 56.5t-27.5 52.5q13 12 24.5 24.5t25.5 23.5q20 -30 35 -63.5t26 -68.5q22 -76 19 -154q-2 -62 -4 -123.5t-4 -123.5q18 -19 35 -37.5t35 -38.5 q-19 -18 -37.5 -36t-38.5 -36q-2 -62 -4 -123t-4 -124q-2 -40 -10 -79q-8 -38 -22 -76q-14 -36 -32 -71t-40 -67q-12 12 -23 24t-23 24z" />
<glyph unicode="~" horiz-adv-x="637" d="M32 264q32 21 62 41.5t62 42.5h166q80 -1 164 -1q24 16 49 32.5t49 32.5q5 -11 10 -21.5t10 -21.5q-32 -22 -63 -43.5t-63 -44.5q-84 0 -166.5 0.5t-166.5 0.5q-24 -16 -47 -33t-47 -33q-4 12 -9.5 24t-9.5 24z" />
<glyph unicode="&#xa2;" horiz-adv-x="579" d="M58 377q6 46 28 86.5t54.5 71.5t74 52t86.5 26q2 21 5.5 42t5.5 41h61q-3 -21 -6 -41.5t-5 -41.5q30 -4 57 -16.5t49 -31.5t38 -45t22 -54h-70q-7 16 -17.5 30t-24.5 24.5t-30 18t-34 11.5q-12 -86 -24 -171t-23 -171q39 6 72 27t57 52h70q-16 -28 -38.5 -53t-49 -44.5 t-57.5 -31.5t-63 -16l-12 -86h-61l13 86q-42 4 -78.5 25t-61 54t-35.5 74t-3 82zM122 379q-5 -30 2.5 -58.5t24 -53t41 -41t54.5 -20.5q12 87 24 172t24 172q-32 -5 -61 -20.5t-51.5 -38t-37.5 -51.5q-16 -29 -20 -61z" />
<glyph unicode="&#xa3;" horiz-adv-x="585" d="M20 0l4 34l4 34h130q2 52 2 104t-10 104h-80q2 17 4 33.5t4 32.5h56q-7 24 -16 48.5t-16 49t-10.5 49.5t0.5 51q4 46 24.5 87.5t53 73.5t74 50.5t88.5 18.5q30 1 57 -7.5t50.5 -24.5t42.5 -37.5t31.5 -47t17.5 -53.5q5 -30 1 -58q-1 -6 -1.5 -11t-1.5 -11h-65 q7 31 -0.5 63t-26 57.5t-46.5 41.5q-27 16 -61 15q-31 0 -59.5 -11.5t-51.5 -31.5t-38 -47.5t-17 -58.5q-3 -27 1.5 -53t12.5 -51.5t17 -50.5t14 -51h86.5h86.5q-2 -17 -4 -33.5t-4 -33.5q-38 0 -76 1h-74q7 -52 7.5 -104t-1.5 -104h242l-8 -68h-444z" />
<glyph unicode="&#xa5;" horiz-adv-x="645" d="M7 186l10 69h249q-8 22 -17 44.5t-16 44.5h-203q2 18 5 35t5 35h168q-30 87 -60 172l-64 172h83q38 -107 73.5 -213t73.5 -213q70 106 138 212l136 214h80l-112 -172l-112 -172h172q-2 -18 -5 -35t-5 -35h-206q-14 -22 -30 -44q-16 -24 -30 -46h252l-9 -69h-253l-28 -185 h-75l28 186h-248z" />
<glyph unicode="&#xa9;" horiz-adv-x="964" d="M34 350q0 42 8 82q9 46 26.5 90t41.5 85t55 77t66 66q34 30 73.5 54t82 41t87 26t90.5 9q40 0 80 -8t77 -25t69 -42t56 -57q26 -33 43 -70.5t26 -78.5t9 -83.5t-8 -83.5q-9 -46 -25.5 -89t-40.5 -83t-55 -76t-66 -66t-74.5 -54t-82 -41t-87.5 -26.5t-91 -9.5 q-40 0 -80 8.5t-76.5 25t-68.5 41.5q-33 24 -57 56q-26 32 -43 70.5t-26 79t-9 82.5zM96.5 360.5q-0.5 -36.5 6.5 -71.5t22 -68t37 -61q21 -28 48.5 -49.5t59.5 -35.5t66 -21q36 -6 70 -6q80 0 154 30t134 82q62 52 104.5 122t57.5 150q6 35 6 71.5t-7 72.5t-21 69 q-16 33 -38 61q-21 28 -48.5 49t-59.5 35.5t-66 21.5q-36 6 -70 6q-40 0 -78 -7.5t-75 -22t-71 -35.5t-64 -47q-62 -53 -104 -123q-42 -71 -56 -151q-7 -35 -7.5 -71.5zM286.5 308.5q-0.5 -18.5 3.5 -36t11 -34t19 -30.5q22 -28 55 -43.5t69 -14.5q24 0 48 6t46 17t42 26 t36 33q-7 8 -13.5 17t-14.5 17q-25 -30 -59.5 -48.5t-74.5 -19.5q-27 0 -53.5 10t-42.5 33q-18 22 -24 49q-6 28 0 55q8 44 17 88t17 88q6 30 22.5 57.5t40 47.5t52.5 32t61 12q17 0 33.5 -4t31 -13t26 -22t17.5 -29q10 8 19.5 16t19.5 16q-9 20 -24 36t-33 27t-39 16t-43 5 q-30 0 -59 -9t-55 -25t-47.5 -38t-36.5 -48q-11 -18 -18.5 -37t-11.5 -40q-8 -44 -16 -87.5t-17 -88.5q-4 -18 -4.5 -36.5z" />
<glyph unicode="&#xab;" horiz-adv-x="436" d="M45 309q38 51 75.5 102t75.5 101q13 -8 26.5 -15t27.5 -15l-64 -86t-63 -87l69 -172q-16 -8 -31.5 -16.5t-31.5 -16.5q-21 52 -41.5 103t-42.5 102zM218 309l76 102q36 51 74 101q14 -8 27.5 -15t27.5 -15q-32 -44 -63 -86t-63 -86q18 -44 35.5 -87t35.5 -86 q-17 -8 -33.5 -16.5t-32.5 -16.5q-21 52 -41.5 103t-42.5 102z" />
<glyph unicode="&#xad;" d="M32 276l88 68h460q-22 -18 -43 -35t-44 -33h-461z" />
<glyph unicode="&#xae;" horiz-adv-x="905" d="M7 349q-1 43 7 83q9 46 26.5 90t41.5 84t55 76t67 67q34 30 73 53.5t82 40.5t87.5 26.5t90.5 9.5q40 0 80 -8t76.5 -24.5t68.5 -41.5t56 -57q26 -33 43.5 -71.5t26 -79.5t9 -82.5t-7.5 -82.5q-9 -46 -26 -90t-41 -84t-54 -76q-30 -35 -66 -65q-35 -30 -74.5 -53.5 t-82.5 -41t-88 -27t-91 -9.5q-40 0 -80 8t-76 25t-68 42t-57 57q-26 32 -43.5 70t-26 78.5t-8.5 82.5zM69 360.5q0 -36.5 7 -72t21.5 -68t36.5 -61.5q21 -28 49 -49.5t59.5 -35.5t66.5 -21t69 -7q80 0 154 30q75 30 135 82q62 53 104 123.5t57 150.5q6 35 6 71.5t-7 71.5 t-21 68t-37 62q-21 28 -49 49.5t-59.5 35.5t-66 21t-69.5 7q-40 0 -78.5 -8t-75.5 -22.5t-71 -35t-63 -46.5q-62 -53 -104 -123.5t-57 -150.5q-7 -35 -7 -71.5zM214 152h46l24 124t23 124h80.5h80.5l38 -124t38 -125h52q-19 63 -37.5 125.5t-38.5 125.5q30 4 57.5 17.5 t49.5 34.5q23 21 38 48.5t21 57.5q8 30 0.5 59t-26 51t-44.5 35q-28 13 -58 10q-60 0 -119 0.5t-118 0.5q-26 -142 -52.5 -282t-54.5 -282zM316 446l42 222h96h96q21 2 40 -7t32 -24.5t18.5 -35t-0.5 -41.5q-4 -24 -17 -44t-31 -36q-18 -15 -39 -24.5t-45 -9.5h-192z" />
<glyph unicode="&#xbb;" horiz-adv-x="436" d="M13 137q32 44 63 87q30 42 62 85q-16 44 -33 87q-17 42 -35 86l62 30q22 -51 43 -101q21 -49 41 -101q-38 -52 -75 -103t-75 -103q-14 8 -27 17t-26 16zM186 137l127 173q-17 44 -34 86t-35 86l62 30q22 -51 43 -101.5t42 -100.5q-38 -52 -75.5 -103t-76.5 -103 q-13 8 -26 16.5t-27 16.5z" />
<glyph unicode="&#xbc;" horiz-adv-x="778" d="M50 0q76 96 153 191t155 190t155 190t153 190h66q-152 -192 -307 -380.5t-307 -380.5h-68zM101 706q3 14 5 28l4 28h126q-19 -112 -38 -222q-20 -110 -40 -222h-54q17 98 34 194q16 96 32 194h-69zM398 90l4 24q2 14 4 26q61 77 121.5 152.5t121.5 153.5h55l-50 -300h42 l-10 -56h-42l-8 -44q-4 -24 -8 -46h-54q4 22 8 45t8 45h-192zM478 146h122q8 50 16.5 99t16.5 98q-39 -50 -78 -98.5t-77 -98.5z" />
<glyph unicode="&#xbd;" horiz-adv-x="831" d="M46 0q154 192 312 381q156 189 312 379h66q-154 -192 -312 -380q-156 -188 -310 -380h-68zM104 317q18 98 36 194.5t35 194.5h-69l9 55h125q-20 -112 -41 -222.5t-41 -221.5h-54zM434 0q1 8 3.5 15t2.5 14q8 26 18 51q10 26 24 50q17 28 39 52q23 23 51 39q23 13 46.5 24 t47.5 23q16 8 31 19t21 30q3 14 -1 26.5t-12.5 22.5t-20.5 15t-26 5h-34q-22 0 -42 -11q-18 -10 -30 -28l-10 -12q-16 22 -32 41l3 3l3 5q10 13 24 23.5t29 18.5q30 16 65 16h34q12 0 24 -2t23 -8q20 -10 35 -27t20 -39q4 -12 4 -24q0 -13 -2 -25t-6 -23q-4 -10 -12 -20 q-12 -18 -30 -30t-37 -22q-24 -12 -47.5 -23t-45.5 -24q-22 -11 -38 -29t-28 -38q-8 -12 -14 -25t-10 -27h220l-11 -56h-279z" />
<glyph unicode="&#xbe;" horiz-adv-x="817" d="M28 378l48 42l2 -6q0 -4 2 -6q2 -8 7 -16t13 -12q7 -6 16 -8q9 -4 18 -4h32q14 0 27 6t24 15q11 10 18.5 22.5t10.5 26.5q2 13 0 26.5t-10 24.5q-8 10 -19.5 15.5t-24.5 4.5q-18 0 -34 0.5t-34 0.5q2 14 5 27.5t5 27.5q18 0 35 -0.5t34 -0.5q14 0 27 6q14 4 24 14 q12 10 20 22q8 14 10 28q3 13 0.5 26t-11.5 23q-8 10 -19.5 15.5t-24.5 4.5h-31q-10 0 -20 -3t-20 -8q-8 -5 -16 -12l-12 -16q-2 -3 -4 -6.5t-6 -5.5l-16 20t-16 21q1 2 2.5 3.5t2.5 3.5q21 26 51 42q14 7 30 12q18 4 34 4h31q22 0 43.5 -9t35.5 -27q16 -18 20 -42t-1 -46 q-4 -16 -10.5 -32t-16.5 -30q-8 -10 -17 -19t-19 -17q8 -8 13 -17t9 -20q6 -14 6 -29.5t-2 -31.5q-6 -26 -19 -49t-34 -39q-19 -17 -43 -26.5t-49 -9.5h-31q-15 0 -30 4q-14 4 -28 12q-11 8 -20.5 18t-13.5 24l-2 4q-1 0 -2 2zM88 0q78 96 156.5 191t157.5 190t158 189 q78 94 156 190h66q-155 -192 -314 -380q-158 -190 -313 -380h-67zM436 90q2 12 5 24t5 25q62 76 124 152.5t124 153.5h56q-14 -75 -28 -149t-28 -150h42l-10 -56h-42l-8 -44q-5 -24 -9 -46h-55q4 22 8.5 45t8.5 45h-193zM517 146h123q9 50 18 98q8 48 18 98 q-40 -49 -79.5 -97.5t-79.5 -98.5z" />
<glyph unicode="&#xd7;" horiz-adv-x="588" d="M61 182l92 80q47 38 93 78q-32 40 -63 81t-64 81q14 12 28.5 24t28.5 24q32 -40 64 -79t63 -80q48 40 94.5 80.5t94.5 81.5q10 -12 19 -24.5t19 -24.5q-48 -40 -94 -81t-94 -82q32 -40 63 -79.5t62 -79.5q-14 -12 -28.5 -24.5t-29.5 -24.5q-32 40 -62.5 79.5t-62.5 78.5 q-47 -39 -92.5 -78.5t-91.5 -79.5q-10 12 -19.5 24.5t-19.5 24.5z" />
<glyph unicode="&#xf7;" horiz-adv-x="620" d="M54 276q4 17 8 33.5t7 33.5h501q-4 -16 -7 -33q-3 -18 -7 -34h-251h-251zM223 122q-1 10 1 18q2 10 8 18.5t14 15.5t17.5 10.5t19.5 4.5q9 0 17 -4t14 -11q6 -8 7 -16.5t-1 -17.5q-2 -10 -7.5 -19.5t-14.5 -15.5q-8 -7 -18 -11t-20 -4q-8 0 -16.5 3.5t-13.5 11.5 q-6 7 -7 17zM298 458.5q-1 9.5 1 17.5q2 10 7.5 19t13.5 16t18 11t20 3q9 0 17.5 -3.5t14.5 -10.5t7 -17t-1 -18q-2 -10 -8 -19t-14 -16t-18 -10t-20 -4q-9 0 -17.5 3.5t-13.5 10.5q-6 8 -7 17.5z" />
<glyph unicode="&#x2000;" horiz-adv-x="682" />
<glyph unicode="&#x2001;" horiz-adv-x="1365" />
<glyph unicode="&#x2002;" horiz-adv-x="682" />
<glyph unicode="&#x2003;" horiz-adv-x="1365" />
<glyph unicode="&#x2004;" horiz-adv-x="455" />
<glyph unicode="&#x2005;" horiz-adv-x="341" />
<glyph unicode="&#x2006;" horiz-adv-x="227" />
<glyph unicode="&#x2007;" horiz-adv-x="227" />
<glyph unicode="&#x2008;" horiz-adv-x="170" />
<glyph unicode="&#x2009;" horiz-adv-x="273" />
<glyph unicode="&#x200a;" horiz-adv-x="75" />
<glyph unicode="&#x2010;" d="M32 276l88 68h460q-22 -18 -43 -35t-44 -33h-461z" />
<glyph unicode="&#x2011;" d="M32 276l88 68h460q-22 -18 -43 -35t-44 -33h-461z" />
<glyph unicode="&#x2012;" d="M32 276l88 68h460q-22 -18 -43 -35t-44 -33h-461z" />
<glyph unicode="&#x2013;" horiz-adv-x="971" d="M-48 274q43 17 85.5 34.5t84.5 34.5h894q-43 -17 -84.5 -35t-84.5 -34h-895z" />
<glyph unicode="&#x2014;" horiz-adv-x="2060" d="M-137 274q94 16 186.5 34t186.5 35h1950q-93 -16 -185 -34.5t-185 -34.5h-1953z" />
<glyph unicode="&#x2018;" horiz-adv-x="284" d="M107 550l2 104t1 104h82q-7 -52 -14.5 -104t-13.5 -104h-57z" />
<glyph unicode="&#x2019;" horiz-adv-x="288" d="M107 550l2 104t1 104h82q-7 -52 -14.5 -104t-13.5 -104h-57z" />
<glyph unicode="&#x201c;" horiz-adv-x="403" d="M94 550q6 52 13 104t13 104h82l-26 -104l-26 -104h-56zM218 550q6 52 13 104t13 104h78q-12 -52 -24.5 -104t-25.5 -104h-54z" />
<glyph unicode="&#x201d;" horiz-adv-x="404" d="M94 550q6 52 13 104t13 104h82l-26 -104l-26 -104h-56zM218 550q6 52 13 104t13 104h78q-12 -52 -24.5 -104t-25.5 -104h-54z" />
<glyph unicode="&#x2022;" horiz-adv-x="641" d="M122 270q-2 24 3 48q8 40 29.5 76t52.5 63t69 43t80 16q38 2 71 -15t55 -45.5t31 -65t0 -72.5q-8 -40 -29.5 -76t-53 -63t-70 -43t-80.5 -16q-26 -2 -48.5 5.5t-42 22t-33.5 33.5t-23 42t-11 47z" />
<glyph unicode="&#x202f;" horiz-adv-x="273" />
<glyph unicode="&#x205f;" horiz-adv-x="341" />
<glyph unicode="&#x20ac;" horiz-adv-x="950" d="M30 267q4 18 7 35q3 16 7 34h118q2 23 8 45q2 12 4 23q3 10 7 22h-119q4 18 7.5 36t7.5 35h132q30 58 74.5 108.5t99.5 87.5t119 57t130 20q48 0 96 -13t89 -40t71 -65t41 -88h-82q-14 33 -38.5 58t-55 41.5t-65 25.5t-69.5 8q-51 -1 -99 -16.5t-90.5 -42t-78 -63.5 t-62.5 -79h365q-4 -18 -8 -35t-8 -35h-382q-4 -12 -8 -23t-6 -22t-3 -22t-2 -23h383l-14 -70q-92 0 -183 0.5t-182 0.5q6 -45 28.5 -84t56.5 -67t77 -43t87 -13q41 0 80.5 11t76.5 29t69 44t59 56h83q-32 -46 -75 -85.5t-92 -68t-104 -44.5t-113 -16q-40 -2 -78 6t-72 26 t-63 44t-51 58t-34 70q-12 37 -14 77h-132z" />
<glyph unicode="&#x2122;" horiz-adv-x="906" d="M99 803l13 45h346q-3 -12 -6 -22.5t-7 -22.5h-151q-36 -124 -71 -246q-35 -121 -71 -245h-43q36 124 71 246q34 121 70 245h-151zM344 312q40 134 78 268l78 268h49q22 -64 42.5 -128t40.5 -130q59 64 117.5 129t116.5 129h48l-76 -268l-76 -268h-44q33 116 66 230 q32 112 64 228q-50 -56 -100 -110t-100 -110h-52q-19 56 -36.5 111t-37.5 110q-34 -116 -66 -230q-34 -113 -68 -229h-44z" />
<glyph unicode="&#x25fc;" horiz-adv-x="560" d="M0 0v560h560v-560h-560z" />
</font>
</defs>
</svg>
